%FSLAX23Y23*%
%MOIN*%
G04 EasyPC Gerber Version 13.0.2 Build 2807 *
%ADD10C,0.00500*%
%ADD14C,0.00800*%
%ADD11C,0.01200*%
X0Y0D02*
D02*
D10*
X17040Y18297D02*
Y18334D01*
X17061*
X17068Y18331*
X17071Y18325*
X17068Y18319*
X17061Y18316*
X17040*
X17061D02*
X17071Y18297D01*
X17093Y18300D02*
X17099Y18297D01*
X17105*
X17111Y18300*
X17115Y18306*
X17111Y18313*
X17105Y18316*
X17099*
X17105D02*
X17111Y18319D01*
X17115Y18325*
X17111Y18331*
X17105Y18334*
X17099*
X17093Y18331*
X17040Y18487D02*
Y18524D01*
X17061*
X17068Y18521*
X17071Y18515*
X17068Y18509*
X17061Y18506*
X17040*
X17061D02*
X17071Y18487D01*
X17096D02*
X17108D01*
X17102D02*
Y18524D01*
X17096Y18518*
X17165Y18487D02*
X17140D01*
X17161Y18509*
X17165Y18515*
X17161Y18521*
X17155Y18524*
X17146*
X17140Y18521*
X17040Y18837D02*
Y18874D01*
X17061*
X17068Y18871*
X17071Y18865*
X17068Y18859*
X17061Y18856*
X17040*
X17061D02*
X17071Y18837D01*
X17096D02*
X17108D01*
X17102D02*
Y18874D01*
X17096Y18868*
X17143Y18840D02*
X17149Y18837D01*
X17155*
X17161Y18840*
X17165Y18846*
X17161Y18852*
X17155Y18856*
X17149*
X17155D02*
X17161Y18859D01*
X17165Y18865*
X17161Y18871*
X17155Y18874*
X17149*
X17143Y18871*
X17045Y17163D02*
X17095D01*
Y17323*
X17045*
Y17163*
X17095*
X17045Y17166D02*
X17095D01*
X17045Y17169D02*
X17095D01*
X17045Y17172D02*
X17095D01*
X17045Y17175D02*
X17095D01*
X17045Y17177D02*
X17095D01*
X17045Y17180D02*
X17095D01*
X17045Y17184D02*
X17095D01*
X17045Y17187D02*
X17095D01*
X17045Y17190D02*
X17095D01*
X17045Y17192D02*
X17095D01*
X17045Y17195D02*
X17095D01*
X17045Y17199D02*
X17095D01*
X17045Y17202D02*
X17095D01*
X17045Y17205D02*
X17095D01*
X17045Y17208D02*
X17095D01*
X17045Y17211D02*
X17095D01*
X17045Y17214D02*
X17095D01*
X17045Y17217D02*
X17095D01*
X17045Y17220D02*
X17095D01*
X17045Y17223D02*
X17095D01*
X17045Y17226D02*
X17095D01*
X17045Y17229D02*
X17095D01*
X17045Y17232D02*
X17095D01*
X17045Y17235D02*
X17095D01*
X17045Y17238D02*
X17095D01*
X17045Y17241D02*
X17095D01*
X17045Y17244D02*
X17095D01*
X17045Y17247D02*
X17095D01*
X17045Y17250D02*
X17095D01*
X17045Y17253D02*
X17095D01*
X17045Y17256D02*
X17095D01*
X17045Y17259D02*
X17095D01*
X17045Y17262D02*
X17095D01*
X17045Y17265D02*
X17095D01*
X17045Y17267D02*
X17095D01*
X17045Y17270D02*
X17095D01*
X17045Y17274D02*
X17095D01*
X17045Y17277D02*
X17095D01*
X17045Y17280D02*
X17095D01*
X17045Y17283D02*
X17095D01*
X17045Y17286D02*
X17095D01*
X17045Y17289D02*
X17095D01*
X17045Y17292D02*
X17095D01*
X17045Y17295D02*
X17095D01*
X17045Y17298D02*
X17095D01*
X17045Y17301D02*
X17095D01*
X17045Y17304D02*
X17095D01*
X17045Y17307D02*
X17095D01*
X17045Y17310D02*
X17095D01*
X17045Y17313D02*
X17095D01*
X17045Y17316D02*
X17095D01*
X17045Y17319D02*
X17095D01*
X17045Y17322D02*
X17095D01*
X17045Y17163D02*
X17375D01*
Y17323*
X17045*
Y17163*
X17045Y18819D02*
Y18701D01*
X17108*
Y18819*
X17045*
X17091Y17108D02*
X17088Y17105D01*
X17081Y17102*
X17072*
X17066Y17105*
X17063Y17108*
X17060Y17114*
Y17127*
X17063Y17133*
X17066Y17136*
X17072Y17139*
X17081*
X17088Y17136*
X17091Y17133*
X17125Y17102D02*
Y17139D01*
X17110Y17114*
X17135*
X17118Y17468D02*
X17115Y17465D01*
X17109Y17462*
X17100*
X17093Y17465*
X17090Y17468*
X17087Y17474*
Y17487*
X17090Y17493*
X17093Y17496*
X17100Y17499*
X17109*
X17115Y17496*
X17118Y17493*
X17137Y17465D02*
X17143Y17462D01*
X17153*
X17159Y17465*
X17162Y17471*
Y17474*
X17159Y17481*
X17153Y17484*
X17137*
Y17499*
X17162*
X17106Y18351D02*
Y18469D01*
X17044*
Y18351*
X17106*
Y18551D02*
Y18669D01*
X17044*
Y18551*
X17106*
X17113Y17741D02*
X17231D01*
Y17803*
X17113*
Y17741*
Y18046D02*
X17231D01*
Y18108*
X17113*
Y18046*
X17133Y18819D02*
Y18701D01*
X17195*
Y18819*
X17133*
X17135Y17992D02*
Y18029D01*
X17156*
X17163Y18026*
X17166Y18020*
X17163Y18014*
X17156Y18011*
X17135*
X17156D02*
X17166Y17992D01*
X17200D02*
Y18029D01*
X17185Y18004*
X17210*
X17135Y18152D02*
Y18189D01*
X17156*
X17163Y18186*
X17166Y18180*
X17163Y18174*
X17156Y18171*
X17135*
X17156D02*
X17166Y18152D01*
X17191D02*
X17203D01*
X17197D02*
Y18189D01*
X17191Y18183*
X17168Y17687D02*
X17165Y17684D01*
X17159Y17681*
X17149*
X17143Y17684*
X17140Y17687*
X17137Y17694*
Y17706*
X17140Y17712*
X17143Y17715*
X17149Y17719*
X17159*
X17165Y17715*
X17168Y17712*
X17193Y17681D02*
X17206D01*
X17199D02*
Y17719D01*
X17193Y17712*
X17186Y17434D02*
X17068D01*
Y17372*
X17186*
Y17434*
X17235Y18687D02*
Y18724D01*
X17220D02*
X17251D01*
X17273Y18690D02*
X17279Y18687D01*
X17285*
X17291Y18690*
X17295Y18696*
X17291Y18703*
X17285Y18706*
X17279*
X17285D02*
X17291Y18709D01*
X17295Y18715*
X17291Y18721*
X17285Y18724*
X17279*
X17273Y18721*
X17220Y18777D02*
Y18814D01*
X17241*
X17248Y18811*
X17251Y18805*
X17248Y18799*
X17241Y18796*
X17220*
X17241D02*
X17251Y18777D01*
X17276D02*
X17288D01*
X17282D02*
Y18814D01*
X17276Y18808*
X17326Y18777D02*
X17338D01*
X17332D02*
Y18814D01*
X17326Y18808*
X17230Y17120D02*
X17236Y17117D01*
X17243*
X17249Y17120*
X17252Y17126*
X17249Y17133*
X17243Y17136*
X17236*
X17243D02*
X17249Y17139D01*
X17252Y17145*
X17249Y17151*
X17243Y17154*
X17236*
X17230Y17151*
X17243Y18867D02*
Y18904D01*
X17227Y18879*
X17252*
X17231Y18269D02*
X17113D01*
Y18207*
X17231*
Y18269*
X17238Y18461D02*
X17242Y18462D01*
X17244Y18466*
X17242Y18469*
X17238Y18471*
X17235Y18469*
X17233Y18466*
X17235Y18462*
X17238Y18461*
X17234Y18464D02*
X17243D01*
X17233Y18467D02*
X17243D01*
X17235Y18470D02*
X17242D01*
X17252Y18480D02*
Y18434D01*
X17245Y18427*
X17252Y18419*
Y18375*
X17137*
Y18480*
X17252*
X17268Y18475D02*
X17264Y18474D01*
X17262Y18471*
X17262Y18467*
X17264Y18464*
X17268Y18463*
X17272Y18464*
X17274Y18467*
X17274Y18471*
X17272Y18474*
X17268Y18475*
X17266Y18463D02*
X17270D01*
X17262Y18466D02*
X17274D01*
X17262Y18469D02*
X17274D01*
X17263Y18472D02*
X17273D01*
X17270Y18412D02*
Y18449D01*
X17288*
X17295Y18446*
X17298Y18443*
X17301Y18437*
Y18424*
X17298Y18418*
X17295Y18415*
X17288Y18412*
X17270*
X17326D02*
X17338D01*
X17332D02*
Y18449D01*
X17326Y18443*
X17277Y18677D02*
X17127D01*
Y18538*
X17277*
Y18677*
X17340Y18617D02*
Y18654D01*
X17361*
X17368Y18651*
X17371Y18645*
X17368Y18639*
X17361Y18636*
X17340*
X17361D02*
X17371Y18617D01*
X17415D02*
X17390D01*
X17411Y18639*
X17415Y18645*
X17411Y18651*
X17405Y18654*
X17396*
X17390Y18651*
X17406Y18486D02*
Y18604D01*
X17344*
Y18486*
X17406*
X17433Y17117D02*
X17446D01*
X17440D02*
Y17154D01*
X17433Y17148*
X17443Y18143D02*
Y17198D01*
X18388*
Y18143*
X17443*
X17555Y17027D02*
Y17064D01*
X17576*
X17583Y17061*
X17586Y17055*
X17583Y17049*
X17576Y17046*
X17555*
X17576D02*
X17586Y17027D01*
X17614D02*
X17620Y17030D01*
X17626Y17036*
X17630Y17046*
Y17055*
X17626Y17061*
X17620Y17064*
X17614*
X17608Y17061*
X17605Y17055*
X17608Y17049*
X17614Y17046*
X17620*
X17626Y17049*
X17630Y17055*
X17555Y17112D02*
Y17149D01*
X17576*
X17583Y17146*
X17586Y17140*
X17583Y17134*
X17576Y17131*
X17555*
X17576D02*
X17586Y17112D01*
X17614Y17131D02*
X17620D01*
X17626Y17134*
X17630Y17140*
X17626Y17146*
X17620Y17149*
X17614*
X17608Y17146*
X17605Y17140*
X17608Y17134*
X17614Y17131*
X17608Y17128*
X17605Y17121*
X17608Y17115*
X17614Y17112*
X17620*
X17626Y17115*
X17630Y17121*
X17626Y17128*
X17620Y17131*
X17651Y17077D02*
X17533D01*
Y17014*
X17651*
Y17077*
Y17159D02*
X17533D01*
Y17097*
X17651*
Y17159*
X17778Y17749D02*
X17798Y17730D01*
X17778Y17779D02*
X17827Y17730D01*
X17778Y17808D02*
X17857Y17730D01*
X17778Y17838D02*
X17886Y17730D01*
X17778Y17868D02*
X17916Y17730D01*
X17778Y17897D02*
X17945Y17730D01*
X17778Y17927D02*
X17975Y17730D01*
X17778Y17956D02*
X18004Y17730D01*
X17778Y17986D02*
X18034Y17730D01*
X17778Y17986D02*
Y17730D01*
X18034*
Y17986*
X17778*
X17807D02*
X18034Y17759D01*
X17837Y17986D02*
X18034Y17789D01*
X17840Y17153D02*
X17690D01*
Y17013*
X17840*
Y17152*
X17861Y17294D02*
X17871D01*
Y17290*
X17868Y17284*
X17865Y17281*
X17858Y17278*
X17852*
X17846Y17281*
X17843Y17284*
X17840Y17290*
Y17303*
X17843Y17309*
X17846Y17312*
X17852Y17315*
X17858*
X17865Y17312*
X17868Y17309*
X17871Y17303*
X17890Y17287D02*
X17893Y17281D01*
X17899Y17278*
X17911*
X17918Y17281*
X17921Y17287*
X17918Y17294*
X17911Y17297*
X17899*
X17893Y17300*
X17890Y17306*
X17893Y17312*
X17899Y17315*
X17911*
X17918Y17312*
X17921Y17306*
X17940Y17278D02*
Y17315D01*
X17955Y17297*
X17971Y17315*
Y17278*
X17996D02*
X18008D01*
X18002D02*
Y17315D01*
X17996Y17309*
X17870Y17112D02*
Y17149D01*
X17855D02*
X17886D01*
X17930Y17112D02*
X17905D01*
X17926Y17134*
X17930Y17140*
X17926Y17146*
X17920Y17149*
X17911*
X17905Y17146*
X17867Y17986D02*
X18034Y17818D01*
X17896Y17986D02*
X18034Y17848D01*
X17926Y17986D02*
X18034Y17877D01*
X17933Y17031D02*
X18051D01*
Y17093*
X17933*
Y17031*
X17955Y17986D02*
X18034Y17907D01*
X17960Y17112D02*
Y17149D01*
X17981*
X17988Y17146*
X17991Y17140*
X17988Y17134*
X17981Y17131*
X17960*
X17981D02*
X17991Y17112D01*
X18010D02*
X18035Y17149D01*
X18010*
X17985Y17986D02*
X18034Y17936D01*
X18014Y17986D02*
X18034Y17966D01*
X18080Y17149D02*
Y17112D01*
X18111*
X18130D02*
Y17149D01*
X18148*
X18155Y17146*
X18158Y17143*
X18161Y17137*
Y17124*
X18158Y17118*
X18155Y17115*
X18148Y17112*
X18130*
X18186D02*
X18198D01*
X18192D02*
Y17149D01*
X18186Y17143*
X18182Y17690D02*
X18231Y17641D01*
X18185Y17706D02*
X18246Y17645D01*
X18190Y17033D02*
Y17093D01*
X18191Y17720D02*
X18260Y17651D01*
X18201Y17730D02*
X18270Y17661D01*
X18201Y17094D02*
X18083D01*
Y17032*
X18201*
Y17094*
X18231Y17740D02*
X18280Y17690D01*
X18231Y18094D02*
X18201Y18064D01*
X18260*
X18231Y18094*
X18204Y18067D02*
X18258D01*
X18207Y18070D02*
X18255D01*
X18210Y18073D02*
X18252D01*
X18213Y18076D02*
X18249D01*
X18216Y18079D02*
X18246D01*
X18219Y18082D02*
X18243D01*
X18222Y18085D02*
X18240D01*
X18225Y18088D02*
X18237D01*
X18228Y18091D02*
X18234D01*
X18276Y17675D02*
X18214Y17737D01*
X18280Y17690D02*
X18279Y17702D01*
X18274Y17713*
X18268Y17723*
X18259Y17731*
X18248Y17736*
X18237Y17739*
X18225*
X18213Y17736*
X18203Y17731*
X18194Y17723*
X18187Y17713*
X18183Y17702*
X18182Y17690*
X18183Y17679*
X18187Y17668*
X18194Y17658*
X18203Y17650*
X18213Y17644*
X18225Y17642*
X18237*
X18248Y17644*
X18259Y17650*
X18268Y17658*
X18274Y17668*
X18279Y17679*
X18280Y17690*
X18340Y18587D02*
Y18487D01*
X18390Y18537*
X18340Y18587*
Y18488D02*
X18341D01*
X18340Y18491D02*
X18344D01*
X18340Y18494D02*
X18347D01*
X18340Y18497D02*
X18350D01*
X18340Y18500D02*
X18353D01*
X18340Y18503D02*
X18356D01*
X18340Y18506D02*
X18359D01*
X18340Y18509D02*
X18362D01*
X18340Y18512D02*
X18365D01*
X18340Y18515D02*
X18368D01*
X18340Y18518D02*
X18371D01*
X18340Y18521D02*
X18374D01*
X18340Y18524D02*
X18377D01*
X18340Y18527D02*
X18380D01*
X18340Y18530D02*
X18383D01*
X18340Y18533D02*
X18386D01*
X18340Y18536D02*
X18389D01*
X18340Y18539D02*
X18388D01*
X18340Y18542D02*
X18385D01*
X18340Y18545D02*
X18382D01*
X18340Y18548D02*
X18379D01*
X18340Y18551D02*
X18376D01*
X18340Y18554D02*
X18373D01*
X18340Y18557D02*
X18370D01*
X18340Y18560D02*
X18367D01*
X18340Y18563D02*
X18364D01*
X18340Y18566D02*
X18361D01*
X18340Y18569D02*
X18358D01*
X18340Y18572D02*
X18355D01*
X18340Y18575D02*
X18352D01*
X18340Y18578D02*
X18349D01*
X18340Y18581D02*
X18346D01*
X18340Y18584D02*
X18343D01*
X18435Y18117D02*
Y18154D01*
X18456*
X18463Y18151*
X18466Y18145*
X18463Y18139*
X18456Y18136*
X18435*
X18456D02*
X18466Y18117D01*
X18485Y18120D02*
X18491Y18117D01*
X18500*
X18506Y18120*
X18510Y18126*
Y18129*
X18506Y18136*
X18500Y18139*
X18485*
Y18154*
X18510*
Y17292D02*
X18525Y17329D01*
X18541Y17292*
X18516Y17308D02*
X18535D01*
X18560Y17292D02*
Y17329D01*
X18591Y17292*
Y17329*
X18625Y17292D02*
Y17329D01*
X18610D02*
X18641D01*
X18685Y17292D02*
X18660D01*
X18681Y17314*
X18685Y17320*
X18681Y17326*
X18675Y17329*
X18666*
X18660Y17326*
X18510Y17887D02*
X18525Y17924D01*
X18541Y17887*
X18516Y17903D02*
X18535D01*
X18560Y17887D02*
Y17924D01*
X18591Y17887*
Y17924*
X18625Y17887D02*
Y17924D01*
X18610D02*
X18641D01*
X18666Y17887D02*
X18678D01*
X18672D02*
Y17924D01*
X18666Y17918*
X18521Y17983D02*
Y18102D01*
X18459*
Y17983*
X18521*
X18540Y18117D02*
Y18154D01*
X18561*
X18568Y18151*
X18571Y18145*
X18568Y18139*
X18561Y18136*
X18540*
X18561D02*
X18571Y18117D01*
X18590Y18126D02*
X18593Y18133D01*
X18599Y18136*
X18605*
X18611Y18133*
X18615Y18126*
X18611Y18120*
X18605Y18117*
X18599*
X18593Y18120*
X18590Y18126*
Y18136*
X18593Y18145*
X18599Y18151*
X18605Y18154*
X18609Y17983D02*
Y18102D01*
X18546*
Y17983*
X18609*
X18647Y18525D02*
X18650Y18519D01*
X18656Y18516*
X18669*
X18675Y18519*
X18678Y18525*
X18675Y18532*
X18669Y18535*
X18656*
X18650Y18538*
X18647Y18544*
X18650Y18550*
X18656Y18553*
X18669*
X18675Y18550*
X18678Y18544*
X18706Y18516D02*
X18719D01*
X18713D02*
Y18553D01*
X18706D02*
X18719D01*
X18747Y18516D02*
Y18553D01*
X18763Y18535*
X18778Y18553*
Y18516*
X18685Y18132D02*
Y18169D01*
X18670D02*
X18701D01*
X18726Y18132D02*
X18738D01*
X18732D02*
Y18169D01*
X18726Y18163*
X18777Y18112D02*
X18627D01*
Y17972*
X18777*
Y18111*
X18779Y18839D02*
Y18851D01*
Y18845D02*
X18741D01*
X18747Y18839*
X18779Y18892D02*
X18776Y18898D01*
X18769Y18904*
X18760Y18907*
X18751*
X18744Y18904*
X18741Y18898*
Y18892*
X18744Y18885*
X18751Y18882*
X18757Y18885*
X18760Y18892*
Y18898*
X18757Y18904*
X18751Y18907*
D02*
D11*
X17027Y18808D02*
Y19008D01*
X17227*
X17102Y18983D02*
X17090Y18981D01*
X17079Y18977*
X17069Y18970*
X17061Y18961*
X17055Y18950*
X17052Y18939*
Y18926*
X17055Y18915*
X17061Y18904*
X17069Y18895*
X17079Y18888*
X17090Y18884*
X17102Y18883*
X17114Y18884*
X17125Y18888*
X17135Y18895*
X17143Y18904*
X17149Y18915*
X17152Y18926*
Y18939*
X17149Y18950*
X17143Y18961*
X17135Y18970*
X17125Y18977*
X17114Y18981*
X17102Y18983*
X17227Y17008D02*
X17027D01*
Y17208*
X17240Y17083D02*
X17231Y17081D01*
X17224Y17077*
X17218Y17070*
X17215Y17062*
Y17053*
X17218Y17045*
X17224Y17038*
X17231Y17034*
X17240Y17033*
X17248Y17034*
X17256Y17038*
X17261Y17045*
X17264Y17053*
Y17062*
X17261Y17070*
X17256Y17077*
X17248Y17081*
X17240Y17083*
Y18983D02*
X17231Y18981D01*
X17224Y18977*
X17218Y18970*
X17215Y18962*
Y18953*
X17218Y18945*
X17224Y18938*
X17231Y18934*
X17240Y18933*
X17248Y18934*
X17256Y18938*
X17261Y18945*
X17264Y18953*
Y18962*
X17261Y18970*
X17256Y18977*
X17248Y18981*
X17240Y18983*
X17340Y17083D02*
X17331Y17081D01*
X17324Y17077*
X17318Y17070*
X17315Y17062*
Y17053*
X17318Y17045*
X17324Y17038*
X17331Y17034*
X17340Y17033*
X17348Y17034*
X17356Y17038*
X17361Y17045*
X17364Y17053*
Y17062*
X17361Y17070*
X17356Y17077*
X17348Y17081*
X17340Y17083*
Y18983D02*
X17331Y18981D01*
X17324Y18977*
X17318Y18970*
X17315Y18962*
Y18953*
X17318Y18945*
X17324Y18938*
X17331Y18934*
X17340Y18933*
X17348Y18934*
X17356Y18938*
X17361Y18945*
X17364Y18953*
Y18962*
X17361Y18970*
X17356Y18977*
X17348Y18981*
X17340Y18983*
X17440Y17083D02*
X17431Y17081D01*
X17424Y17077*
X17418Y17070*
X17415Y17062*
Y17053*
X17418Y17045*
X17424Y17038*
X17431Y17034*
X17440Y17033*
X17448Y17034*
X17456Y17038*
X17461Y17045*
X17464Y17053*
Y17062*
X17461Y17070*
X17456Y17077*
X17448Y17081*
X17440Y17083*
Y18983D02*
X17431Y18981D01*
X17424Y18977*
X17418Y18970*
X17415Y18962*
Y18953*
X17418Y18945*
X17424Y18938*
X17431Y18934*
X17440Y18933*
X17448Y18934*
X17456Y18938*
X17461Y18945*
X17464Y18953*
Y18962*
X17461Y18970*
X17456Y18977*
X17448Y18981*
X17440Y18983*
X17515Y18187D02*
Y18287D01*
X17603*
Y18787*
X17515*
Y18900*
X18728*
Y18737*
X18515*
Y18337*
X18728*
Y18187*
X17515*
X17540Y18983D02*
X17531Y18981D01*
X17524Y18977*
X17518Y18970*
X17515Y18962*
Y18953*
X17518Y18945*
X17524Y18938*
X17531Y18934*
X17540Y18933*
X17548Y18934*
X17556Y18938*
X17561Y18945*
X17564Y18953*
Y18962*
X17561Y18970*
X17556Y18977*
X17548Y18981*
X17540Y18983*
X17640D02*
X17631Y18981D01*
X17624Y18977*
X17618Y18970*
X17615Y18962*
Y18953*
X17618Y18945*
X17624Y18938*
X17631Y18934*
X17640Y18933*
X17648Y18934*
X17656Y18938*
X17661Y18945*
X17664Y18953*
Y18962*
X17661Y18970*
X17656Y18977*
X17648Y18981*
X17640Y18983*
X17740D02*
X17731Y18981D01*
X17724Y18977*
X17718Y18970*
X17715Y18962*
Y18953*
X17718Y18945*
X17724Y18938*
X17731Y18934*
X17740Y18933*
X17748Y18934*
X17756Y18938*
X17761Y18945*
X17764Y18953*
Y18962*
X17761Y18970*
X17756Y18977*
X17748Y18981*
X17740Y18983*
X17753Y18187D02*
Y18899D01*
X17790Y18299D02*
X17792Y18285D01*
X17796Y18271*
X17803Y18259*
X17813Y18248*
X17824Y18240*
X17837Y18234*
X17851Y18231*
X17866Y18231*
X17880Y18234*
X17893Y18240*
X17904Y18248*
X17914Y18259*
X17921Y18271*
X17926Y18285*
X17927Y18299*
X17927Y18524*
X17925Y18538*
X17921Y18552*
X17914Y18564*
X17904Y18575*
X17892Y18583*
X17879Y18589*
X17865Y18592*
X17851Y18592*
X17837Y18589*
X17824Y18583*
X17812Y18575*
X17803Y18564*
X17796Y18552*
X17791Y18538*
X17790Y18524*
X17790Y18299*
X17840Y18983D02*
X17831Y18981D01*
X17824Y18977*
X17818Y18970*
X17815Y18962*
Y18953*
X17818Y18945*
X17824Y18938*
X17831Y18934*
X17840Y18933*
X17848Y18934*
X17856Y18938*
X17861Y18945*
X17864Y18953*
Y18962*
X17861Y18970*
X17856Y18977*
X17848Y18981*
X17840Y18983*
X17940D02*
X17931Y18981D01*
X17924Y18977*
X17918Y18970*
X17915Y18962*
Y18953*
X17918Y18945*
X17924Y18938*
X17931Y18934*
X17940Y18933*
X17948Y18934*
X17956Y18938*
X17961Y18945*
X17964Y18953*
Y18962*
X17961Y18970*
X17956Y18977*
X17948Y18981*
X17940Y18983*
X18040D02*
X18031Y18981D01*
X18024Y18977*
X18018Y18970*
X18015Y18962*
Y18953*
X18018Y18945*
X18024Y18938*
X18031Y18934*
X18040Y18933*
X18048Y18934*
X18056Y18938*
X18061Y18945*
X18064Y18953*
Y18962*
X18061Y18970*
X18056Y18977*
X18048Y18981*
X18040Y18983*
X18115Y18299D02*
X18117Y18285D01*
X18121Y18271*
X18128Y18259*
X18138Y18248*
X18149Y18240*
X18162Y18234*
X18176Y18231*
X18191Y18231*
X18205Y18234*
X18218Y18240*
X18229Y18248*
X18239Y18259*
X18246Y18271*
X18251Y18285*
X18252Y18299*
X18252Y18524*
X18250Y18538*
X18246Y18552*
X18239Y18564*
X18229Y18575*
X18217Y18583*
X18204Y18589*
X18190Y18592*
X18176Y18592*
X18162Y18589*
X18149Y18583*
X18137Y18575*
X18128Y18564*
X18121Y18552*
X18116Y18538*
X18115Y18524*
X18115Y18299*
X18140Y18983D02*
X18131Y18981D01*
X18124Y18977*
X18118Y18970*
X18115Y18962*
Y18953*
X18118Y18945*
X18124Y18938*
X18131Y18934*
X18140Y18933*
X18148Y18934*
X18156Y18938*
X18161Y18945*
X18164Y18953*
Y18962*
X18161Y18970*
X18156Y18977*
X18148Y18981*
X18140Y18983*
X18240D02*
X18231Y18981D01*
X18224Y18977*
X18218Y18970*
X18215Y18962*
Y18953*
X18218Y18945*
X18224Y18938*
X18231Y18934*
X18240Y18933*
X18248Y18934*
X18256Y18938*
X18261Y18945*
X18264Y18953*
Y18962*
X18261Y18970*
X18256Y18977*
X18248Y18981*
X18240Y18983*
X18340D02*
X18331Y18981D01*
X18324Y18977*
X18318Y18970*
X18315Y18962*
Y18953*
X18318Y18945*
X18324Y18938*
X18331Y18934*
X18340Y18933*
X18348Y18934*
X18356Y18938*
X18361Y18945*
X18364Y18953*
Y18962*
X18361Y18970*
X18356Y18977*
X18348Y18981*
X18340Y18983*
X18415Y18187D02*
Y18899D01*
X18440Y18983D02*
X18431Y18981D01*
X18424Y18977*
X18418Y18970*
X18415Y18962*
Y18953*
X18418Y18945*
X18424Y18938*
X18431Y18934*
X18440Y18933*
X18448Y18934*
X18456Y18938*
X18461Y18945*
X18464Y18953*
Y18962*
X18461Y18970*
X18456Y18977*
X18448Y18981*
X18440Y18983*
X18540D02*
X18531Y18981D01*
X18524Y18977*
X18518Y18970*
X18515Y18962*
Y18953*
X18518Y18945*
X18524Y18938*
X18531Y18934*
X18540Y18933*
X18548Y18934*
X18556Y18938*
X18561Y18945*
X18564Y18953*
Y18962*
X18561Y18970*
X18556Y18977*
X18548Y18981*
X18540Y18983*
X18590Y19008D02*
X18790D01*
Y18808*
X18628Y18899D02*
X18728Y18799D01*
X18640Y18983D02*
X18631Y18981D01*
X18624Y18977*
X18618Y18970*
X18615Y18962*
Y18953*
X18618Y18945*
X18624Y18938*
X18631Y18934*
X18640Y18933*
X18648Y18934*
X18656Y18938*
X18661Y18945*
X18664Y18953*
Y18962*
X18661Y18970*
X18656Y18977*
X18648Y18981*
X18640Y18983*
X18715Y17133D02*
X18703Y17131D01*
X18691Y17127*
X18681Y17120*
X18673Y17111*
X18668Y17100*
X18665Y17089*
Y17076*
X18668Y17065*
X18673Y17054*
X18681Y17045*
X18691Y17038*
X18703Y17034*
X18715Y17033*
X18727Y17034*
X18738Y17038*
X18748Y17045*
X18756Y17054*
X18761Y17065*
X18764Y17076*
Y17089*
X18761Y17100*
X18756Y17111*
X18748Y17120*
X18738Y17127*
X18727Y17131*
X18715Y17133*
X18740Y18983D02*
X18731Y18981D01*
X18724Y18977*
X18718Y18970*
X18715Y18962*
Y18953*
X18718Y18945*
X18724Y18938*
X18731Y18934*
X18740Y18933*
X18748Y18934*
X18756Y18938*
X18761Y18945*
X18764Y18953*
Y18962*
X18761Y18970*
X18756Y18977*
X18748Y18981*
X18740Y18983*
X18752Y17658D02*
X18452D01*
Y17358*
X18752*
Y17658*
Y17851D02*
X18452D01*
Y17551*
X18752*
Y17851*
X18790Y17208D02*
Y17008D01*
X18590*
X19052Y17633D02*
X18752D01*
Y17383*
X19052*
Y17633*
Y17826D02*
X18752D01*
Y17576*
X19052*
Y17826*
D02*
D14*
X18602Y17358D02*
X18623Y17359D01*
X18644Y17364*
X18664Y17371*
X18683Y17382*
X18700Y17395*
X18715Y17410*
X18728Y17427*
X18738Y17446*
X18746Y17466*
X18750Y17487*
X18752Y17508*
X18750Y17529*
X18746Y17550*
X18738Y17570*
X18728Y17589*
X18715Y17606*
X18700Y17621*
X18683Y17634*
X18664Y17644*
X18644Y17652*
X18623Y17656*
X18602Y17658*
X18581Y17656*
X18560Y17652*
X18540Y17644*
X18521Y17634*
X18504Y17621*
X18489Y17606*
X18476Y17589*
X18465Y17570*
X18458Y17550*
X18453Y17529*
X18452Y17508*
X18453Y17487*
X18458Y17466*
X18465Y17446*
X18476Y17427*
X18489Y17410*
X18504Y17395*
X18521Y17382*
X18540Y17371*
X18560Y17364*
X18581Y17359*
X18602Y17358*
Y17551D02*
X18623Y17553D01*
X18644Y17557*
X18664Y17565*
X18683Y17575*
X18700Y17588*
X18715Y17603*
X18728Y17620*
X18738Y17639*
X18746Y17659*
X18750Y17680*
X18752Y17701*
X18750Y17723*
X18746Y17744*
X18738Y17764*
X18728Y17782*
X18715Y17800*
X18700Y17815*
X18683Y17828*
X18664Y17838*
X18644Y17845*
X18623Y17850*
X18602Y17851*
X18581Y17850*
X18560Y17845*
X18540Y17838*
X18521Y17828*
X18504Y17815*
X18489Y17800*
X18476Y17782*
X18465Y17764*
X18458Y17744*
X18453Y17723*
X18452Y17701*
X18453Y17680*
X18458Y17659*
X18465Y17639*
X18476Y17620*
X18489Y17603*
X18504Y17588*
X18521Y17575*
X18540Y17565*
X18560Y17557*
X18581Y17553*
X18602Y17551*
X18877Y17633D02*
Y17383D01*
Y17826D02*
Y17576D01*
X18902Y17633D02*
Y17383D01*
Y17826D02*
Y17576D01*
X18927Y17633D02*
Y17383D01*
Y17826D02*
Y17576D01*
X18952Y17633D02*
Y17383D01*
Y17826D02*
Y17576D01*
X18977Y17633D02*
Y17383D01*
Y17826D02*
Y17576D01*
X19002Y17633D02*
Y17383D01*
Y17826D02*
Y17576D01*
X0Y0D02*
M02*
