%FSLAX23Y23*%
%MOIN*%
G04 EasyPC Gerber Version 13.0.2 Build 2807 *
%ADD10C,0.00500*%
%ADD11C,0.01200*%
X0Y0D02*
D02*
D10*
X17176Y18367D02*
X18357D01*
Y17225*
X17206*
X17176Y17255*
Y18367*
X17255Y17294D02*
X17285Y17265D01*
Y17324*
X17255Y17294*
X17282Y17267D02*
X17285D01*
X17279Y17270D02*
X17285D01*
X17276Y17273D02*
X17285D01*
X17273Y17276D02*
X17285D01*
X17270Y17279D02*
X17285D01*
X17267Y17282D02*
X17285D01*
X17264Y17285D02*
X17285D01*
X17261Y17288D02*
X17285D01*
X17258Y17291D02*
X17285D01*
X17255Y17294D02*
X17285D01*
X17258Y17297D02*
X17285D01*
X17261Y17300D02*
X17285D01*
X17264Y17303D02*
X17285D01*
X17267Y17306D02*
X17285D01*
X17270Y17309D02*
X17285D01*
X17273Y17312D02*
X17285D01*
X17276Y17315D02*
X17285D01*
X17279Y17318D02*
X17285D01*
X17282Y17321D02*
X17285D01*
X17823Y18413D02*
X17813D01*
Y18409*
X17816Y18403*
X17820Y18400*
X17826Y18397*
X17832*
X17838Y18400*
X17841Y18403*
X17845Y18409*
Y18422*
X17841Y18428*
X17838Y18431*
X17832Y18434*
X17826*
X17820Y18431*
X17816Y18428*
X17813Y18422*
X17795Y18406D02*
X17791Y18400D01*
X17785Y18397*
X17773*
X17766Y18400*
X17763Y18406*
X17766Y18413*
X17773Y18416*
X17785*
X17791Y18419*
X17795Y18425*
X17791Y18431*
X17785Y18434*
X17773*
X17766Y18431*
X17763Y18425*
X17745Y18397D02*
Y18434D01*
X17729Y18416*
X17713Y18434*
Y18397*
X17670D02*
X17695D01*
X17673Y18419*
X17670Y18425*
X17673Y18431*
X17679Y18434*
X17688*
X17695Y18431*
X18082Y17619D02*
X18221Y17480D01*
X18092Y17639D02*
X18239Y17491D01*
X18104Y17655D02*
X18255Y17505D01*
X18121Y17668D02*
X18269Y17521D01*
X18141Y17678D02*
X18279Y17540D01*
X18163Y17686D02*
X18287Y17562D01*
X18169Y17472D02*
X18073Y17569D01*
X18180Y17471D02*
X18162Y17473D01*
X18145Y17477*
X18129Y17484*
X18114Y17494*
X18101Y17506*
X18090Y17520*
X18081Y17536*
X18075Y17553*
X18072Y17571*
Y17589*
X18075Y17606*
X18081Y17623*
X18090Y17639*
X18101Y17653*
X18114Y17665*
X18129Y17675*
X18145Y17682*
X18162Y17686*
X18180Y17688*
X18198Y17686*
X18215Y17682*
X18232Y17675*
X18247Y17665*
X18260Y17653*
X18271Y17639*
X18279Y17623*
X18285Y17606*
X18288Y17589*
Y17571*
X18285Y17553*
X18279Y17536*
X18271Y17520*
X18260Y17506*
X18247Y17494*
X18232Y17484*
X18215Y17477*
X18198Y17473*
X18180Y17471*
X18198Y17473D02*
X18075Y17596D01*
X18288Y17590D02*
X18191Y17687D01*
X18453Y17289D02*
X18571D01*
Y17227*
X18453*
Y17289*
X18458Y17107D02*
X18461Y17110D01*
X18468Y17113*
X18477*
X18483Y17110*
X18486Y17107*
X18490Y17101*
Y17088*
X18486Y17082*
X18483Y17079*
X18477Y17076*
X18468*
X18461Y17079*
X18458Y17082*
X18436Y17110D02*
X18430Y17113D01*
X18424*
X18418Y17110*
X18415Y17104*
X18418Y17098*
X18424Y17094*
X18430*
X18424D02*
X18418Y17091D01*
X18415Y17085*
X18418Y17079*
X18424Y17076*
X18430*
X18436Y17079*
X18518Y17313D02*
X18521Y17310D01*
X18528Y17307*
X18537*
X18543Y17310*
X18546Y17313*
X18550Y17319*
Y17332*
X18546Y17338*
X18543Y17341*
X18537Y17344*
X18528*
X18521Y17341*
X18518Y17338*
X18475Y17307D02*
X18500D01*
X18478Y17329*
X18475Y17335*
X18478Y17341*
X18484Y17344*
X18493*
X18500Y17341*
X18632Y17013D02*
X18582D01*
Y17173*
X18632*
Y17013*
X18582D02*
X18632D01*
X18582Y17016D02*
X18632D01*
X18582Y17019D02*
X18632D01*
X18582Y17022D02*
X18632D01*
X18582Y17025D02*
X18632D01*
X18582Y17028D02*
X18632D01*
X18582Y17031D02*
X18632D01*
X18582Y17034D02*
X18632D01*
X18582Y17037D02*
X18632D01*
X18582Y17040D02*
X18632D01*
X18582Y17043D02*
X18632D01*
X18582Y17046D02*
X18632D01*
X18582Y17049D02*
X18632D01*
X18582Y17052D02*
X18632D01*
X18582Y17055D02*
X18632D01*
X18582Y17058D02*
X18632D01*
X18582Y17061D02*
X18632D01*
X18582Y17064D02*
X18632D01*
X18582Y17067D02*
X18632D01*
X18582Y17070D02*
X18632D01*
X18582Y17073D02*
X18632D01*
X18582Y17076D02*
X18632D01*
X18582Y17078D02*
X18632D01*
X18582Y17082D02*
X18632D01*
X18582Y17085D02*
X18632D01*
X18582Y17088D02*
X18632D01*
X18582Y17090D02*
X18632D01*
X18582Y17094D02*
X18632D01*
X18582Y17096D02*
X18632D01*
X18582Y17100D02*
X18632D01*
X18582Y17102D02*
X18632D01*
X18582Y17106D02*
X18632D01*
X18582Y17109D02*
X18632D01*
X18582Y17112D02*
X18632D01*
X18582Y17115D02*
X18632D01*
X18582Y17118D02*
X18632D01*
X18582Y17120D02*
X18632D01*
X18582Y17124D02*
X18632D01*
X18582Y17127D02*
X18632D01*
X18582Y17130D02*
X18632D01*
X18582Y17133D02*
X18632D01*
X18582Y17136D02*
X18632D01*
X18582Y17139D02*
X18632D01*
X18582Y17142D02*
X18632D01*
X18582Y17145D02*
X18632D01*
X18582Y17148D02*
X18632D01*
X18582Y17151D02*
X18632D01*
X18582Y17154D02*
X18632D01*
X18582Y17157D02*
X18632D01*
X18582Y17160D02*
X18632D01*
X18582Y17163D02*
X18632D01*
X18582Y17166D02*
X18632D01*
X18582Y17169D02*
X18632D01*
X18582Y17172D02*
X18632D01*
Y17013D02*
X18302D01*
Y17173*
X18632*
Y17013*
X18740Y17307D02*
Y17344D01*
X18718*
X18711Y17341*
X18708Y17335*
X18711Y17329*
X18718Y17326*
X18740*
X18718D02*
X18708Y17307D01*
X18683D02*
X18671D01*
X18677D02*
Y17344D01*
X18683Y17338*
X18636Y17310D02*
X18630Y17307D01*
X18624*
X18618Y17310*
X18615Y17316*
Y17335*
X18618Y17341*
X18624Y17344*
X18630*
X18636Y17341*
X18640Y17335*
Y17316*
X18636Y17310*
X18618Y17341*
X18741Y17226D02*
X18623D01*
Y17288*
X18741*
Y17226*
D02*
D11*
X17027Y17208D02*
Y17008D01*
X17227*
X17102Y18983D02*
X17090Y18981D01*
X17079Y18977*
X17069Y18970*
X17061Y18961*
X17055Y18950*
X17052Y18939*
Y18926*
X17055Y18915*
X17061Y18904*
X17069Y18895*
X17079Y18888*
X17090Y18884*
X17102Y18883*
X17114Y18884*
X17125Y18888*
X17135Y18895*
X17143Y18904*
X17149Y18915*
X17152Y18926*
Y18939*
X17149Y18950*
X17143Y18961*
X17135Y18970*
X17125Y18977*
X17114Y18981*
X17102Y18983*
X17227Y19008D02*
X17027D01*
Y18808*
X18590Y17008D02*
X18790D01*
Y17208*
X18715Y17133D02*
X18703Y17131D01*
X18691Y17127*
X18681Y17120*
X18673Y17111*
X18668Y17100*
X18665Y17089*
Y17076*
X18668Y17065*
X18673Y17054*
X18681Y17045*
X18691Y17038*
X18703Y17034*
X18715Y17033*
X18727Y17034*
X18738Y17038*
X18748Y17045*
X18756Y17054*
X18761Y17065*
X18764Y17076*
Y17089*
X18761Y17100*
X18756Y17111*
X18748Y17120*
X18738Y17127*
X18727Y17131*
X18715Y17133*
X18790Y18808D02*
Y19008D01*
X18590*
X0Y0D02*
M02*
