%FSLAX23Y23*%
%MOIN*%
G04 EasyPC Gerber Version 13.0.2 Build 2807 *
%ADD80R,0.04000X0.07000*%
%ADD82R,0.04362X0.08299*%
%ADD76R,0.06000X0.08000*%
%ADD83R,0.08299X0.04362*%
%ADD29R,0.09000X0.10500*%
%ADD79R,0.06800X0.06000*%
%ADD78R,0.08000X0.06000*%
%ADD73R,0.17000X0.07000*%
%ADD84C,0.06500*%
%ADD75C,0.11900*%
%ADD74C,0.12000*%
%ADD81C,0.13000*%
%ADD72C,0.14000*%
%ADD77R,0.15000X0.13000*%
X0Y0D02*
D02*
D29*
X17240Y18958D03*
X17240Y17058D03*
X17340D03*
X17340Y18958D03*
X17440D03*
X17440Y17058D03*
X17540Y18958D03*
X17640D03*
X17740D03*
X17840D03*
X17940D03*
X18040D03*
X18140D03*
X18240D03*
X18340D03*
X18440D03*
X18540D03*
X18640D03*
X18740D03*
D02*
D72*
X17102Y18933D03*
X18715Y17083D03*
D02*
D73*
X17540Y18387D03*
Y18487D03*
Y18587D03*
Y18687D03*
X18578Y18387D03*
Y18487D03*
Y18587D03*
Y18687D03*
D02*
D74*
X17791Y18844D03*
X18506Y17411D03*
Y17605D03*
D03*
Y17798D03*
X18698Y17410D03*
Y17603D03*
D03*
Y17797D03*
D02*
D75*
X18603Y18287D03*
D02*
D76*
X17093Y17403D03*
X17138Y18238D03*
X17138Y17772D03*
Y18077D03*
X17161Y17403D03*
X17206Y18238D03*
X17206Y17772D03*
Y18077D03*
X17558Y17046D03*
Y17128D03*
X17626Y17046D03*
Y17128D03*
X17958Y17062D03*
X18026D03*
X18108Y17063D03*
X18176D03*
D02*
D77*
X17115Y17243D03*
X17305D03*
D02*
D78*
X17075Y18376D03*
Y18444D03*
Y18576D03*
Y18644D03*
X17076Y18726D03*
Y18794D03*
X17164Y18726D03*
Y18794D03*
X17375Y18511D03*
Y18579D03*
X18490Y18008D03*
Y18077D03*
X18578Y18008D03*
Y18077D03*
D02*
D79*
X17159Y18567D03*
Y18648D03*
X17246Y18608D03*
X17722Y17043D03*
Y17123D03*
X17809Y17083D03*
X18659Y18002D03*
Y18082D03*
X18746Y18042D03*
D02*
D80*
X17157Y18370D03*
Y18485D03*
X17193Y18370D03*
X17193Y18485D03*
X17232Y18370D03*
Y18485D03*
D02*
D81*
X18602Y17508D03*
Y17701D03*
D02*
D82*
X17601Y17208D03*
Y18133D03*
X17640Y17208D03*
X17640Y18133D03*
X17680Y17208D03*
X17680Y18133D03*
X17719Y17208D03*
X17719Y18133D03*
X17758Y17208D03*
X17758Y18133D03*
X17798Y17208D03*
X17798Y18133D03*
X17837Y17208D03*
X17837Y18133D03*
X17876Y17208D03*
X17876Y18133D03*
X17916Y17208D03*
X17916Y18133D03*
X17955Y17208D03*
X17955Y18133D03*
X17994Y17208D03*
X17995Y18133D03*
X18034Y17208D03*
X18034Y18133D03*
X18073Y17208D03*
X18073Y18133D03*
X18113Y17208D03*
X18113Y18133D03*
X18152Y17208D03*
X18152Y18133D03*
X18191Y17208D03*
Y18133D03*
X18231Y17208D03*
X18231Y18133D03*
D02*
D83*
X17453Y17356D03*
Y17395D03*
Y17513D03*
Y17553D03*
Y17592D03*
Y17631D03*
Y17671D03*
Y17710D03*
Y17749D03*
Y17789D03*
Y17828D03*
Y17868D03*
Y17907D03*
Y17946D03*
Y17986D03*
X17453Y17434D03*
Y17474D03*
X18378Y17868D03*
Y17907D03*
X18378Y17356D03*
Y17395D03*
Y17434D03*
Y17474D03*
Y17513D03*
Y17553D03*
Y17592D03*
Y17631D03*
Y17671D03*
Y17710D03*
Y17749D03*
Y17789D03*
Y17828D03*
Y17946D03*
Y17986D03*
D02*
D84*
X17075Y18528D03*
X17105Y18138D03*
X17115Y18488D03*
X17205Y17833D03*
X17240Y17653D03*
X17260Y18773D03*
X17285Y18083D03*
Y18238D03*
X17290Y17833D03*
X17325Y17433D03*
X17370Y18483D03*
X17380Y18793D03*
X17385Y17392D03*
X17390Y17673D03*
X17485Y18793D03*
X17535Y17948D03*
X17560Y17613D03*
Y17673D03*
Y17758D03*
Y17823D03*
Y17883D03*
X17600Y18033D03*
X17640Y17977D03*
X17690Y18788D03*
Y18848D03*
X17725Y17977D03*
X17860Y18227D03*
X17890Y17613D03*
X17895Y17063D03*
X17915Y18733D03*
X17920Y18227D03*
X17957Y18822D03*
X17995Y18048D03*
Y18868D03*
X18075Y17883D03*
X18100Y17383D03*
X18110Y17833D03*
X18140Y18733D03*
X18155Y18052D03*
X18170Y17878D03*
X18185Y17363D03*
X18265Y17113D03*
Y18778D03*
X18280Y17203D03*
X18370Y17153D03*
X18470Y18778D03*
X18480Y17188D03*
X18490Y17927D03*
X18495Y18863D03*
X18535Y18192D03*
X0Y0D02*
M02*
