M48
INCH
T1C00.024
T2C00.038
T3C00.050
T4C00.060
T5C00.090
T6C00.100
%
T001
X17075Y18528
X17105Y18138
X17115Y18488
X17205Y17833
X17240Y17653
X17260Y18773
X17285Y18083
X17285Y18238
X17290Y17833
X17325Y17433
X17370Y18483
X17380Y18793
X17385Y17393
X17390Y17673
X17485Y18793
X17535Y17948
X17560Y17613
X17560Y17673
X17560Y17758
X17560Y17823
X17560Y17883
X17600Y18033
X17640Y17978
X17690Y18788
X17690Y18848
X17725Y17978
X17860Y18228
X17890Y17613
X17895Y17063
X17915Y18733
X17920Y18228
X17957Y18822
X17995Y18048
X17995Y18868
X18075Y17883
X18100Y17383
X18110Y17833
X18140Y18733
X18155Y18053
X18170Y17878
X18185Y17363
X18265Y17113
X18265Y18778
X18280Y17203
X18370Y17153
X18470Y18778
X18480Y17188
X18490Y17928
X18495Y18863
X18535Y18193
T002
X17240Y18958
X17240Y17058
X17340Y17058
X17340Y18958
X17440Y18958
X17440Y17058
X17540Y18958
X17640Y18958
X17740Y18958
X17840Y18958
X17940Y18958
X18040Y18958
X18140Y18958
X18240Y18958
X18340Y18958
X18440Y18958
X18540Y18958
X18640Y18958
X18740Y18958
T003
X18602Y17508
X18602Y17701
T004
X18506Y17411
X18506Y17605
X18506Y17605
X18506Y17798
X18698Y17410
X18698Y17603
X18698Y17603
X18698Y17797
T005
X17791Y18844
X18603Y18287
T006
X17102Y18933
X18715Y17083
M30
