%FSLAX23Y23*%
%MOIN*%
G04 EasyPC Gerber Version 13.0.2 Build 2807 *
%ADD97R,0.03937X0.09449*%
%ADD70R,0.04000X0.06000*%
%ADD15R,0.07000X0.08500*%
%ADD96R,0.08661X0.03543*%
%ADD10C,0.00500*%
%ADD27C,0.01100*%
%ADD11C,0.01200*%
%ADD28C,0.02300*%
%ADD26C,0.04500*%
%ADD19C,0.09900*%
%ADD18C,0.10000*%
%ADD23C,0.11000*%
%ADD16C,0.12000*%
%ADD71R,0.13000X0.11000*%
X0Y0D02*
D02*
D10*
X17052Y18498D02*
Y17033D01*
X17187*
Y17118*
X17190*
Y17138*
X17191Y17145*
X17195Y17152*
X17220Y17177*
X17227Y17181*
X17235Y17183*
X17951*
X17959Y17190*
X17346*
Y17320*
X17325*
X17319Y17320*
X17313Y17323*
X17308Y17326*
X17268Y17366*
X17267Y17368*
Y17262*
X17145*
Y17639*
X17202*
X17200Y17646*
X17200Y17653*
X17201Y17663*
X17205Y17673*
X17211Y17681*
X17220Y17687*
X17229Y17691*
X17240Y17692*
X17250Y17691*
X17260Y17687*
X17268Y17681*
X17274Y17673*
X17278Y17663*
X17280Y17653*
X17278Y17642*
X17274Y17632*
X17267Y17623*
Y17575*
X17274Y17573*
X17281Y17569*
X17301Y17549*
X17302Y17548*
Y17723*
X17302Y17728*
X17305Y17734*
X17308Y17739*
X17317Y17747*
Y17807*
X17309Y17801*
X17299Y17797*
X17289Y17796*
X17279Y17797*
X17270Y17801*
X17262Y17808*
X17256Y17817*
X17253Y17826*
X17253Y17837*
X17255Y17847*
X17239*
X17241Y17840*
X17242Y17833*
X17240Y17822*
X17236Y17812*
X17229Y17805*
X17220Y17799*
X17210Y17796*
X17199*
X17189Y17799*
X17180Y17805*
X17173Y17812*
X17169Y17822*
X17168Y17833*
X17168Y17840*
X17170Y17847*
X17148*
Y17895*
X17145*
Y18112*
X17137*
X17129Y18104*
X17119Y18098*
X17108Y18096*
X17096Y18097*
X17086Y18100*
X17076Y18107*
X17069Y18116*
X17065Y18126*
X17063Y18138*
X17064Y18148*
X17069Y18158*
X17075Y18167*
X17084Y18174*
X17094Y18178*
X17105Y18179*
X17116Y18178*
X17126Y18173*
X17134Y18167*
X17141Y18158*
X17145*
Y18165*
X17141Y18167*
X17137Y18170*
X17112Y18195*
X17108Y18200*
X17106Y18206*
X17105Y18213*
Y18403*
X17106Y18409*
X17108Y18415*
X17112Y18420*
X17152Y18460*
X17159Y18465*
X17147*
X17141Y18457*
X17132Y18452*
X17123Y18448*
X17112Y18448*
X17103Y18449*
X17093Y18454*
X17086Y18460*
X17080Y18468*
X17076Y18477*
X17075Y18488*
X17075Y18491*
X17067Y18491*
X17059Y18494*
X17052Y18498*
Y17034D02*
X17187D01*
X17052Y17037D02*
X17187D01*
X17052Y17040D02*
X17187D01*
X17052Y17043D02*
X17187D01*
X17052Y17046D02*
X17187D01*
X17052Y17049D02*
X17187D01*
X17052Y17052D02*
X17187D01*
X17052Y17055D02*
X17187D01*
X17052Y17058D02*
X17187D01*
X17052Y17061D02*
X17187D01*
X17052Y17064D02*
X17187D01*
X17052Y17067D02*
X17187D01*
X17052Y17070D02*
X17187D01*
X17052Y17073D02*
X17187D01*
X17052Y17076D02*
X17187D01*
X17052Y17079D02*
X17187D01*
X17052Y17082D02*
X17187D01*
X17052Y17085D02*
X17187D01*
X17052Y17088D02*
X17187D01*
X17052Y17091D02*
X17187D01*
X17052Y17094D02*
X17187D01*
X17052Y17097D02*
X17187D01*
X17052Y17100D02*
X17187D01*
X17052Y17103D02*
X17187D01*
X17052Y17106D02*
X17187D01*
X17052Y17109D02*
X17187D01*
X17052Y17112D02*
X17187D01*
X17052Y17115D02*
X17187D01*
X17052Y17118D02*
X17190D01*
X17052Y17121D02*
X17190D01*
X17052Y17124D02*
X17190D01*
X17052Y17127D02*
X17190D01*
X17052Y17130D02*
X17190D01*
X17052Y17133D02*
X17190D01*
X17052Y17136D02*
X17190D01*
X17052Y17139D02*
X17190D01*
X17052Y17142D02*
X17190D01*
X17052Y17145D02*
X17191D01*
X17052Y17148D02*
X17193D01*
X17052Y17151D02*
X17195D01*
X17052Y17154D02*
X17198D01*
X17052Y17157D02*
X17201D01*
X17052Y17160D02*
X17204D01*
X17052Y17163D02*
X17207D01*
X17052Y17166D02*
X17210D01*
X17052Y17169D02*
X17213D01*
X17052Y17172D02*
X17216D01*
X17052Y17175D02*
X17219D01*
X17052Y17178D02*
X17222D01*
X17052Y17181D02*
X17227D01*
X17052Y17184D02*
X17953D01*
X17052Y17187D02*
X17956D01*
X17052Y17190D02*
X17346D01*
X17052Y17193D02*
X17346D01*
X17052Y17196D02*
X17346D01*
X17052Y17199D02*
X17346D01*
X17052Y17202D02*
X17346D01*
X17052Y17205D02*
X17346D01*
X17052Y17208D02*
X17346D01*
X17052Y17211D02*
X17346D01*
X17052Y17214D02*
X17346D01*
X17052Y17217D02*
X17346D01*
X17052Y17220D02*
X17346D01*
X17052Y17223D02*
X17346D01*
X17052Y17226D02*
X17346D01*
X17052Y17229D02*
X17346D01*
X17052Y17232D02*
X17346D01*
X17052Y17235D02*
X17346D01*
X17052Y17238D02*
X17346D01*
X17052Y17241D02*
X17346D01*
X17052Y17244D02*
X17346D01*
X17052Y17247D02*
X17346D01*
X17052Y17250D02*
X17346D01*
X17052Y17253D02*
X17346D01*
X17052Y17256D02*
X17346D01*
X17052Y17259D02*
X17346D01*
X17052Y17262D02*
X17145D01*
X17267D02*
X17346D01*
X17052Y17265D02*
X17145D01*
X17267D02*
X17346D01*
X17052Y17268D02*
X17145D01*
X17267D02*
X17346D01*
X17052Y17271D02*
X17145D01*
X17267D02*
X17346D01*
X17052Y17274D02*
X17145D01*
X17267D02*
X17346D01*
X17052Y17277D02*
X17145D01*
X17267D02*
X17346D01*
X17052Y17280D02*
X17145D01*
X17267D02*
X17346D01*
X17052Y17283D02*
X17145D01*
X17267D02*
X17346D01*
X17052Y17286D02*
X17145D01*
X17267D02*
X17346D01*
X17052Y17289D02*
X17145D01*
X17267D02*
X17346D01*
X17052Y17292D02*
X17145D01*
X17267D02*
X17346D01*
X17052Y17295D02*
X17145D01*
X17267D02*
X17346D01*
X17052Y17298D02*
X17145D01*
X17267D02*
X17346D01*
X17052Y17301D02*
X17145D01*
X17267D02*
X17346D01*
X17052Y17304D02*
X17145D01*
X17267D02*
X17346D01*
X17052Y17307D02*
X17145D01*
X17267D02*
X17346D01*
X17052Y17310D02*
X17145D01*
X17267D02*
X17346D01*
X17052Y17313D02*
X17145D01*
X17267D02*
X17346D01*
X17052Y17316D02*
X17145D01*
X17267D02*
X17346D01*
X17052Y17319D02*
X17145D01*
X17267D02*
X17346D01*
X17052Y17322D02*
X17145D01*
X17267D02*
X17314D01*
X17052Y17325D02*
X17145D01*
X17267D02*
X17310D01*
X17052Y17328D02*
X17145D01*
X17267D02*
X17306D01*
X17052Y17331D02*
X17145D01*
X17267D02*
X17303D01*
X17052Y17334D02*
X17145D01*
X17267D02*
X17300D01*
X17052Y17337D02*
X17145D01*
X17267D02*
X17297D01*
X17052Y17340D02*
X17145D01*
X17267D02*
X17294D01*
X17052Y17343D02*
X17145D01*
X17267D02*
X17291D01*
X17052Y17346D02*
X17145D01*
X17267D02*
X17288D01*
X17052Y17349D02*
X17145D01*
X17267D02*
X17285D01*
X17052Y17352D02*
X17145D01*
X17267D02*
X17282D01*
X17052Y17355D02*
X17145D01*
X17267D02*
X17279D01*
X17052Y17358D02*
X17145D01*
X17267D02*
X17276D01*
X17052Y17361D02*
X17145D01*
X17267D02*
X17273D01*
X17052Y17364D02*
X17145D01*
X17267D02*
X17270D01*
X17052Y17367D02*
X17145D01*
X17267D02*
X17267D01*
X17052Y17370D02*
X17145D01*
X17052Y17373D02*
X17145D01*
X17052Y17376D02*
X17145D01*
X17052Y17379D02*
X17145D01*
X17052Y17382D02*
X17145D01*
X17052Y17385D02*
X17145D01*
X17052Y17388D02*
X17145D01*
X17052Y17391D02*
X17145D01*
X17052Y17394D02*
X17145D01*
X17052Y17397D02*
X17145D01*
X17052Y17400D02*
X17145D01*
X17052Y17403D02*
X17145D01*
X17052Y17406D02*
X17145D01*
X17052Y17409D02*
X17145D01*
X17052Y17412D02*
X17145D01*
X17052Y17415D02*
X17145D01*
X17052Y17418D02*
X17145D01*
X17052Y17421D02*
X17145D01*
X17052Y17424D02*
X17145D01*
X17052Y17427D02*
X17145D01*
X17052Y17430D02*
X17145D01*
X17052Y17433D02*
X17145D01*
X17052Y17436D02*
X17145D01*
X17052Y17439D02*
X17145D01*
X17052Y17442D02*
X17145D01*
X17052Y17445D02*
X17145D01*
X17052Y17448D02*
X17145D01*
X17052Y17451D02*
X17145D01*
X17052Y17454D02*
X17145D01*
X17052Y17457D02*
X17145D01*
X17052Y17460D02*
X17145D01*
X17052Y17463D02*
X17145D01*
X17052Y17466D02*
X17145D01*
X17052Y17469D02*
X17145D01*
X17052Y17472D02*
X17145D01*
X17052Y17475D02*
X17145D01*
X17052Y17478D02*
X17145D01*
X17052Y17481D02*
X17145D01*
X17052Y17484D02*
X17145D01*
X17052Y17487D02*
X17145D01*
X17052Y17490D02*
X17145D01*
X17052Y17493D02*
X17145D01*
X17052Y17496D02*
X17145D01*
X17052Y17499D02*
X17145D01*
X17052Y17502D02*
X17145D01*
X17052Y17505D02*
X17145D01*
X17052Y17508D02*
X17145D01*
X17052Y17511D02*
X17145D01*
X17052Y17514D02*
X17145D01*
X17052Y17517D02*
X17145D01*
X17052Y17520D02*
X17145D01*
X17052Y17523D02*
X17145D01*
X17052Y17526D02*
X17145D01*
X17052Y17529D02*
X17145D01*
X17052Y17532D02*
X17145D01*
X17052Y17535D02*
X17145D01*
X17052Y17538D02*
X17145D01*
X17052Y17541D02*
X17145D01*
X17052Y17544D02*
X17145D01*
X17052Y17547D02*
X17145D01*
X17052Y17550D02*
X17145D01*
X17299D02*
X17302D01*
X17052Y17553D02*
X17145D01*
X17296D02*
X17302D01*
X17052Y17556D02*
X17145D01*
X17293D02*
X17302D01*
X17052Y17559D02*
X17145D01*
X17290D02*
X17302D01*
X17052Y17562D02*
X17145D01*
X17287D02*
X17302D01*
X17052Y17565D02*
X17145D01*
X17284D02*
X17302D01*
X17052Y17568D02*
X17145D01*
X17281D02*
X17302D01*
X17052Y17571D02*
X17145D01*
X17278D02*
X17302D01*
X17052Y17574D02*
X17145D01*
X17272D02*
X17302D01*
X17052Y17577D02*
X17145D01*
X17267D02*
X17302D01*
X17052Y17580D02*
X17145D01*
X17267D02*
X17302D01*
X17052Y17583D02*
X17145D01*
X17267D02*
X17302D01*
X17052Y17586D02*
X17145D01*
X17267D02*
X17302D01*
X17052Y17589D02*
X17145D01*
X17267D02*
X17302D01*
X17052Y17592D02*
X17145D01*
X17267D02*
X17302D01*
X17052Y17595D02*
X17145D01*
X17267D02*
X17302D01*
X17052Y17598D02*
X17145D01*
X17267D02*
X17302D01*
X17052Y17601D02*
X17145D01*
X17267D02*
X17302D01*
X17052Y17604D02*
X17145D01*
X17267D02*
X17302D01*
X17052Y17607D02*
X17145D01*
X17267D02*
X17302D01*
X17052Y17610D02*
X17145D01*
X17267D02*
X17302D01*
X17052Y17613D02*
X17145D01*
X17267D02*
X17302D01*
X17052Y17616D02*
X17145D01*
X17267D02*
X17302D01*
X17052Y17619D02*
X17145D01*
X17267D02*
X17302D01*
X17052Y17622D02*
X17145D01*
X17267D02*
X17302D01*
X17052Y17625D02*
X17145D01*
X17269D02*
X17302D01*
X17052Y17628D02*
X17145D01*
X17271D02*
X17302D01*
X17052Y17631D02*
X17145D01*
X17273D02*
X17302D01*
X17052Y17634D02*
X17145D01*
X17275D02*
X17302D01*
X17052Y17637D02*
X17145D01*
X17277D02*
X17302D01*
X17052Y17640D02*
X17202D01*
X17278D02*
X17302D01*
X17052Y17643D02*
X17201D01*
X17278D02*
X17302D01*
X17052Y17646D02*
X17200D01*
X17279D02*
X17302D01*
X17052Y17649D02*
X17200D01*
X17279D02*
X17302D01*
X17052Y17652D02*
X17200D01*
X17280D02*
X17302D01*
X17052Y17655D02*
X17200D01*
X17279D02*
X17302D01*
X17052Y17658D02*
X17200D01*
X17279D02*
X17302D01*
X17052Y17661D02*
X17201D01*
X17279D02*
X17302D01*
X17052Y17664D02*
X17201D01*
X17278D02*
X17302D01*
X17052Y17667D02*
X17202D01*
X17277D02*
X17302D01*
X17052Y17670D02*
X17204D01*
X17275D02*
X17302D01*
X17052Y17673D02*
X17205D01*
X17274D02*
X17302D01*
X17052Y17676D02*
X17207D01*
X17272D02*
X17302D01*
X17052Y17679D02*
X17210D01*
X17269D02*
X17302D01*
X17052Y17682D02*
X17213D01*
X17266D02*
X17302D01*
X17052Y17685D02*
X17216D01*
X17263D02*
X17302D01*
X17052Y17688D02*
X17221D01*
X17258D02*
X17302D01*
X17052Y17691D02*
X17229D01*
X17250D02*
X17302D01*
X17052Y17694D02*
X17302D01*
X17052Y17697D02*
X17302D01*
X17052Y17700D02*
X17302D01*
X17052Y17703D02*
X17302D01*
X17052Y17706D02*
X17302D01*
X17052Y17709D02*
X17302D01*
X17052Y17712D02*
X17302D01*
X17052Y17715D02*
X17302D01*
X17052Y17718D02*
X17302D01*
X17052Y17721D02*
X17302D01*
X17052Y17724D02*
X17302D01*
X17052Y17727D02*
X17302D01*
X17052Y17730D02*
X17303D01*
X17052Y17733D02*
X17304D01*
X17052Y17736D02*
X17306D01*
X17052Y17739D02*
X17309D01*
X17052Y17742D02*
X17312D01*
X17052Y17745D02*
X17315D01*
X17052Y17748D02*
X17317D01*
X17052Y17751D02*
X17317D01*
X17052Y17754D02*
X17317D01*
X17052Y17757D02*
X17317D01*
X17052Y17760D02*
X17317D01*
X17052Y17763D02*
X17317D01*
X17052Y17766D02*
X17317D01*
X17052Y17769D02*
X17317D01*
X17052Y17772D02*
X17317D01*
X17052Y17775D02*
X17317D01*
X17052Y17778D02*
X17317D01*
X17052Y17781D02*
X17317D01*
X17052Y17784D02*
X17317D01*
X17052Y17787D02*
X17317D01*
X17052Y17790D02*
X17317D01*
X17052Y17793D02*
X17317D01*
X17052Y17796D02*
X17198D01*
X17211D02*
X17283D01*
X17296D02*
X17317D01*
X17052Y17799D02*
X17189D01*
X17221D02*
X17274D01*
X17306D02*
X17317D01*
X17052Y17802D02*
X17183D01*
X17226D02*
X17268D01*
X17311D02*
X17317D01*
X17052Y17805D02*
X17180D01*
X17229D02*
X17265D01*
X17314D02*
X17317D01*
X17052Y17808D02*
X17177D01*
X17232D02*
X17262D01*
X17052Y17811D02*
X17174D01*
X17235D02*
X17259D01*
X17052Y17814D02*
X17172D01*
X17237D02*
X17257D01*
X17052Y17817D02*
X17171D01*
X17238D02*
X17256D01*
X17052Y17820D02*
X17170D01*
X17239D02*
X17255D01*
X17052Y17823D02*
X17169D01*
X17240D02*
X17254D01*
X17052Y17826D02*
X17168D01*
X17241D02*
X17253D01*
X17052Y17829D02*
X17168D01*
X17241D02*
X17253D01*
X17052Y17832D02*
X17168D01*
X17242D02*
X17253D01*
X17052Y17835D02*
X17168D01*
X17241D02*
X17253D01*
X17052Y17838D02*
X17168D01*
X17241D02*
X17253D01*
X17052Y17841D02*
X17169D01*
X17241D02*
X17254D01*
X17052Y17844D02*
X17169D01*
X17240D02*
X17254D01*
X17052Y17847D02*
X17148D01*
X17052Y17850D02*
X17148D01*
X17052Y17853D02*
X17148D01*
X17052Y17856D02*
X17148D01*
X17052Y17859D02*
X17148D01*
X17052Y17862D02*
X17148D01*
X17052Y17865D02*
X17148D01*
X17052Y17868D02*
X17148D01*
X17052Y17871D02*
X17148D01*
X17052Y17874D02*
X17148D01*
X17052Y17877D02*
X17148D01*
X17052Y17880D02*
X17148D01*
X17052Y17883D02*
X17148D01*
X17052Y17886D02*
X17148D01*
X17052Y17889D02*
X17148D01*
X17052Y17892D02*
X17148D01*
X17052Y17895D02*
X17145D01*
X17052Y17898D02*
X17145D01*
X17052Y17901D02*
X17145D01*
X17052Y17904D02*
X17145D01*
X17052Y17907D02*
X17145D01*
X17052Y17910D02*
X17145D01*
X17052Y17913D02*
X17145D01*
X17052Y17916D02*
X17145D01*
X17052Y17919D02*
X17145D01*
X17052Y17922D02*
X17145D01*
X17052Y17925D02*
X17145D01*
X17052Y17928D02*
X17145D01*
X17052Y17931D02*
X17145D01*
X17052Y17934D02*
X17145D01*
X17052Y17937D02*
X17145D01*
X17052Y17940D02*
X17145D01*
X17052Y17943D02*
X17145D01*
X17052Y17946D02*
X17145D01*
X17052Y17949D02*
X17145D01*
X17052Y17952D02*
X17145D01*
X17052Y17955D02*
X17145D01*
X17052Y17958D02*
X17145D01*
X17052Y17961D02*
X17145D01*
X17052Y17964D02*
X17145D01*
X17052Y17967D02*
X17145D01*
X17052Y17970D02*
X17145D01*
X17052Y17973D02*
X17145D01*
X17052Y17976D02*
X17145D01*
X17052Y17979D02*
X17145D01*
X17052Y17982D02*
X17145D01*
X17052Y17985D02*
X17145D01*
X17052Y17988D02*
X17145D01*
X17052Y17991D02*
X17145D01*
X17052Y17994D02*
X17145D01*
X17052Y17997D02*
X17145D01*
X17052Y18000D02*
X17145D01*
X17052Y18003D02*
X17145D01*
X17052Y18006D02*
X17145D01*
X17052Y18009D02*
X17145D01*
X17052Y18012D02*
X17145D01*
X17052Y18015D02*
X17145D01*
X17052Y18018D02*
X17145D01*
X17052Y18021D02*
X17145D01*
X17052Y18024D02*
X17145D01*
X17052Y18027D02*
X17145D01*
X17052Y18030D02*
X17145D01*
X17052Y18033D02*
X17145D01*
X17052Y18036D02*
X17145D01*
X17052Y18039D02*
X17145D01*
X17052Y18042D02*
X17145D01*
X17052Y18045D02*
X17145D01*
X17052Y18048D02*
X17145D01*
X17052Y18051D02*
X17145D01*
X17052Y18054D02*
X17145D01*
X17052Y18057D02*
X17145D01*
X17052Y18060D02*
X17145D01*
X17052Y18063D02*
X17145D01*
X17052Y18066D02*
X17145D01*
X17052Y18069D02*
X17145D01*
X17052Y18072D02*
X17145D01*
X17052Y18075D02*
X17145D01*
X17052Y18078D02*
X17145D01*
X17052Y18081D02*
X17145D01*
X17052Y18084D02*
X17145D01*
X17052Y18087D02*
X17145D01*
X17052Y18090D02*
X17145D01*
X17052Y18093D02*
X17145D01*
X17052Y18096D02*
X17101D01*
X17109D02*
X17145D01*
X17052Y18099D02*
X17089D01*
X17121D02*
X17145D01*
X17052Y18102D02*
X17083D01*
X17126D02*
X17145D01*
X17052Y18105D02*
X17078D01*
X17131D02*
X17145D01*
X17052Y18108D02*
X17075D01*
X17134D02*
X17145D01*
X17052Y18111D02*
X17072D01*
X17137D02*
X17145D01*
X17052Y18114D02*
X17070D01*
X17052Y18117D02*
X17068D01*
X17052Y18120D02*
X17067D01*
X17052Y18123D02*
X17066D01*
X17052Y18126D02*
X17065D01*
X17052Y18129D02*
X17064D01*
X17052Y18132D02*
X17063D01*
X17052Y18135D02*
X17063D01*
X17052Y18138D02*
X17063D01*
X17052Y18141D02*
X17063D01*
X17052Y18144D02*
X17064D01*
X17052Y18147D02*
X17064D01*
X17052Y18150D02*
X17065D01*
X17052Y18153D02*
X17066D01*
X17052Y18156D02*
X17067D01*
X17052Y18159D02*
X17069D01*
X17140D02*
X17145D01*
X17052Y18162D02*
X17071D01*
X17138D02*
X17145D01*
X17052Y18165D02*
X17074D01*
X17136D02*
X17144D01*
X17052Y18168D02*
X17076D01*
X17133D02*
X17139D01*
X17052Y18171D02*
X17080D01*
X17129D02*
X17136D01*
X17052Y18174D02*
X17085D01*
X17124D02*
X17133D01*
X17052Y18177D02*
X17092D01*
X17117D02*
X17130D01*
X17052Y18180D02*
X17127D01*
X17052Y18183D02*
X17124D01*
X17052Y18186D02*
X17121D01*
X17052Y18189D02*
X17118D01*
X17052Y18192D02*
X17115D01*
X17052Y18195D02*
X17112D01*
X17052Y18198D02*
X17110D01*
X17052Y18201D02*
X17108D01*
X17052Y18204D02*
X17106D01*
X17052Y18207D02*
X17106D01*
X17052Y18210D02*
X17105D01*
X17052Y18213D02*
X17105D01*
X17052Y18216D02*
X17105D01*
X17052Y18219D02*
X17105D01*
X17052Y18222D02*
X17105D01*
X17052Y18225D02*
X17105D01*
X17052Y18228D02*
X17105D01*
X17052Y18231D02*
X17105D01*
X17052Y18234D02*
X17105D01*
X17052Y18237D02*
X17105D01*
X17052Y18240D02*
X17105D01*
X17052Y18243D02*
X17105D01*
X17052Y18246D02*
X17105D01*
X17052Y18249D02*
X17105D01*
X17052Y18252D02*
X17105D01*
X17052Y18255D02*
X17105D01*
X17052Y18258D02*
X17105D01*
X17052Y18261D02*
X17105D01*
X17052Y18264D02*
X17105D01*
X17052Y18267D02*
X17105D01*
X17052Y18270D02*
X17105D01*
X17052Y18273D02*
X17105D01*
X17052Y18276D02*
X17105D01*
X17052Y18279D02*
X17105D01*
X17052Y18282D02*
X17105D01*
X17052Y18285D02*
X17105D01*
X17052Y18288D02*
X17105D01*
X17052Y18291D02*
X17105D01*
X17052Y18294D02*
X17105D01*
X17052Y18297D02*
X17105D01*
X17052Y18300D02*
X17105D01*
X17052Y18303D02*
X17105D01*
X17052Y18306D02*
X17105D01*
X17052Y18309D02*
X17105D01*
X17052Y18312D02*
X17105D01*
X17052Y18315D02*
X17105D01*
X17052Y18318D02*
X17105D01*
X17052Y18321D02*
X17105D01*
X17052Y18324D02*
X17105D01*
X17052Y18327D02*
X17105D01*
X17052Y18330D02*
X17105D01*
X17052Y18333D02*
X17105D01*
X17052Y18336D02*
X17105D01*
X17052Y18339D02*
X17105D01*
X17052Y18342D02*
X17105D01*
X17052Y18345D02*
X17105D01*
X17052Y18348D02*
X17105D01*
X17052Y18351D02*
X17105D01*
X17052Y18354D02*
X17105D01*
X17052Y18357D02*
X17105D01*
X17052Y18360D02*
X17105D01*
X17052Y18363D02*
X17105D01*
X17052Y18366D02*
X17105D01*
X17052Y18369D02*
X17105D01*
X17052Y18372D02*
X17105D01*
X17052Y18375D02*
X17105D01*
X17052Y18378D02*
X17105D01*
X17052Y18381D02*
X17105D01*
X17052Y18384D02*
X17105D01*
X17052Y18387D02*
X17105D01*
X17052Y18390D02*
X17105D01*
X17052Y18393D02*
X17105D01*
X17052Y18396D02*
X17105D01*
X17052Y18399D02*
X17105D01*
X17052Y18402D02*
X17105D01*
X17052Y18405D02*
X17105D01*
X17052Y18408D02*
X17106D01*
X17052Y18411D02*
X17107D01*
X17052Y18414D02*
X17108D01*
X17052Y18417D02*
X17110D01*
X17052Y18420D02*
X17112D01*
X17052Y18423D02*
X17115D01*
X17052Y18426D02*
X17118D01*
X17052Y18429D02*
X17121D01*
X17052Y18432D02*
X17124D01*
X17052Y18435D02*
X17127D01*
X17052Y18438D02*
X17130D01*
X17052Y18441D02*
X17133D01*
X17052Y18444D02*
X17136D01*
X17052Y18447D02*
X17139D01*
X17052Y18450D02*
X17100D01*
X17129D02*
X17142D01*
X17052Y18453D02*
X17094D01*
X17135D02*
X17145D01*
X17052Y18456D02*
X17090D01*
X17139D02*
X17148D01*
X17052Y18459D02*
X17086D01*
X17143D02*
X17151D01*
X17052Y18462D02*
X17084D01*
X17145D02*
X17155D01*
X17052Y18465D02*
X17081D01*
X17052Y18468D02*
X17080D01*
X17052Y18471D02*
X17078D01*
X17052Y18474D02*
X17077D01*
X17052Y18477D02*
X17076D01*
X17052Y18480D02*
X17075D01*
X17052Y18483D02*
X17075D01*
X17052Y18486D02*
X17075D01*
X17052Y18489D02*
X17075D01*
X17052Y18492D02*
X17064D01*
X17052Y18495D02*
X17057D01*
X17185Y18983D02*
X17161D01*
X17170Y18970*
X17176Y18956*
X17179Y18941*
X17179Y18925*
X17176Y18910*
X17171Y18896*
X17162Y18883*
X17151Y18873*
X17138Y18864*
X17124Y18858*
X17109Y18855*
X17094Y18855*
X17079Y18859*
X17065Y18865*
X17052Y18873*
Y18557*
X17061Y18562*
X17071Y18564*
X17081Y18564*
X17091Y18561*
X17099Y18555*
X17106Y18547*
X17110Y18538*
X17112Y18528*
Y18527*
X17122Y18527*
X17132Y18524*
X17140Y18518*
X17147Y18511*
X17220*
X17237Y18527*
Y18740*
X17229Y18746*
X17224Y18754*
X17221Y18763*
X17220Y18773*
X17221Y18783*
X17225Y18793*
X17231Y18801*
X17240Y18807*
X17249Y18811*
X17260Y18813*
X17270Y18811*
X17280Y18807*
X17288Y18801*
X17294Y18793*
X17298Y18783*
X17300Y18773*
X17298Y18763*
X17295Y18754*
X17290Y18746*
X17283Y18740*
Y18517*
X17282Y18512*
X17279Y18506*
X17276Y18501*
X17246Y18471*
X17240Y18467*
X17333*
X17330Y18475*
X17330Y18483*
X17331Y18493*
X17335Y18503*
X17342Y18512*
X17351Y18518*
X17362Y18522*
X17373Y18522*
X17383Y18520*
X17393Y18515*
X17401Y18507*
X17407Y18498*
Y18763*
X17398Y18757*
X17389Y18754*
X17378Y18753*
X17368Y18754*
X17359Y18758*
X17351Y18765*
X17345Y18773*
X17341Y18782*
X17340Y18793*
X17341Y18802*
X17344Y18812*
X17350Y18820*
X17358Y18826*
X17367Y18830*
X17377Y18832*
X17386Y18832*
X17417Y18862*
Y18892*
X17185*
Y18983*
X17244Y18470D02*
X17332D01*
X17247Y18473D02*
X17331D01*
X17250Y18476D02*
X17330D01*
X17253Y18479D02*
X17330D01*
X17256Y18482D02*
X17330D01*
X17259Y18485D02*
X17330D01*
X17262Y18488D02*
X17330D01*
X17265Y18491D02*
X17330D01*
X17268Y18494D02*
X17331D01*
X17271Y18497D02*
X17332D01*
X17274Y18500D02*
X17333D01*
X17406D02*
X17407D01*
X17277Y18503D02*
X17335D01*
X17404D02*
X17407D01*
X17279Y18506D02*
X17337D01*
X17402D02*
X17407D01*
X17281Y18509D02*
X17339D01*
X17400D02*
X17407D01*
X17147Y18512D02*
X17221D01*
X17282D02*
X17342D01*
X17397D02*
X17407D01*
X17144Y18515D02*
X17224D01*
X17282D02*
X17346D01*
X17394D02*
X17407D01*
X17141Y18517D02*
X17227D01*
X17283D02*
X17350D01*
X17389D02*
X17407D01*
X17137Y18520D02*
X17230D01*
X17283D02*
X17357D01*
X17382D02*
X17407D01*
X17132Y18524D02*
X17233D01*
X17283D02*
X17407D01*
X17123Y18527D02*
X17236D01*
X17283D02*
X17407D01*
X17112Y18530D02*
X17237D01*
X17283D02*
X17407D01*
X17111Y18533D02*
X17237D01*
X17283D02*
X17407D01*
X17111Y18536D02*
X17237D01*
X17283D02*
X17407D01*
X17110Y18539D02*
X17237D01*
X17283D02*
X17407D01*
X17109Y18542D02*
X17237D01*
X17283D02*
X17407D01*
X17107Y18545D02*
X17237D01*
X17283D02*
X17407D01*
X17106Y18548D02*
X17237D01*
X17283D02*
X17407D01*
X17104Y18551D02*
X17237D01*
X17283D02*
X17407D01*
X17101Y18554D02*
X17237D01*
X17283D02*
X17407D01*
X17098Y18557D02*
X17237D01*
X17283D02*
X17407D01*
X17052Y18560D02*
X17056D01*
X17093D02*
X17237D01*
X17283D02*
X17407D01*
X17052Y18563D02*
X17063D01*
X17087D02*
X17237D01*
X17283D02*
X17407D01*
X17052Y18566D02*
X17237D01*
X17283D02*
X17407D01*
X17052Y18569D02*
X17237D01*
X17283D02*
X17407D01*
X17052Y18572D02*
X17237D01*
X17283D02*
X17407D01*
X17052Y18575D02*
X17237D01*
X17283D02*
X17407D01*
X17052Y18578D02*
X17237D01*
X17283D02*
X17407D01*
X17052Y18581D02*
X17237D01*
X17283D02*
X17407D01*
X17052Y18584D02*
X17237D01*
X17283D02*
X17407D01*
X17052Y18587D02*
X17237D01*
X17283D02*
X17407D01*
X17052Y18590D02*
X17237D01*
X17283D02*
X17407D01*
X17052Y18593D02*
X17237D01*
X17283D02*
X17407D01*
X17052Y18596D02*
X17237D01*
X17283D02*
X17407D01*
X17052Y18599D02*
X17237D01*
X17283D02*
X17407D01*
X17052Y18602D02*
X17237D01*
X17283D02*
X17407D01*
X17052Y18605D02*
X17237D01*
X17283D02*
X17407D01*
X17052Y18608D02*
X17237D01*
X17283D02*
X17407D01*
X17052Y18611D02*
X17237D01*
X17283D02*
X17407D01*
X17052Y18614D02*
X17237D01*
X17283D02*
X17407D01*
X17052Y18617D02*
X17237D01*
X17283D02*
X17407D01*
X17052Y18620D02*
X17237D01*
X17283D02*
X17407D01*
X17052Y18623D02*
X17237D01*
X17283D02*
X17407D01*
X17052Y18626D02*
X17237D01*
X17283D02*
X17407D01*
X17052Y18629D02*
X17237D01*
X17283D02*
X17407D01*
X17052Y18632D02*
X17237D01*
X17283D02*
X17407D01*
X17052Y18635D02*
X17237D01*
X17283D02*
X17407D01*
X17052Y18638D02*
X17237D01*
X17283D02*
X17407D01*
X17052Y18641D02*
X17237D01*
X17283D02*
X17407D01*
X17052Y18644D02*
X17237D01*
X17283D02*
X17407D01*
X17052Y18647D02*
X17237D01*
X17283D02*
X17407D01*
X17052Y18650D02*
X17237D01*
X17283D02*
X17407D01*
X17052Y18653D02*
X17237D01*
X17283D02*
X17407D01*
X17052Y18656D02*
X17237D01*
X17283D02*
X17407D01*
X17052Y18659D02*
X17237D01*
X17283D02*
X17407D01*
X17052Y18662D02*
X17237D01*
X17283D02*
X17407D01*
X17052Y18665D02*
X17237D01*
X17283D02*
X17407D01*
X17052Y18668D02*
X17237D01*
X17283D02*
X17407D01*
X17052Y18671D02*
X17237D01*
X17283D02*
X17407D01*
X17052Y18674D02*
X17237D01*
X17283D02*
X17407D01*
X17052Y18677D02*
X17237D01*
X17283D02*
X17407D01*
X17052Y18680D02*
X17237D01*
X17283D02*
X17407D01*
X17052Y18683D02*
X17237D01*
X17283D02*
X17407D01*
X17052Y18686D02*
X17237D01*
X17283D02*
X17407D01*
X17052Y18689D02*
X17237D01*
X17283D02*
X17407D01*
X17052Y18692D02*
X17237D01*
X17283D02*
X17407D01*
X17052Y18695D02*
X17237D01*
X17283D02*
X17407D01*
X17052Y18698D02*
X17237D01*
X17283D02*
X17407D01*
X17052Y18701D02*
X17237D01*
X17283D02*
X17407D01*
X17052Y18703D02*
X17237D01*
X17283D02*
X17407D01*
X17052Y18707D02*
X17237D01*
X17283D02*
X17407D01*
X17052Y18710D02*
X17237D01*
X17283D02*
X17407D01*
X17052Y18713D02*
X17237D01*
X17283D02*
X17407D01*
X17052Y18715D02*
X17237D01*
X17283D02*
X17407D01*
X17052Y18719D02*
X17237D01*
X17283D02*
X17407D01*
X17052Y18721D02*
X17237D01*
X17283D02*
X17407D01*
X17052Y18725D02*
X17237D01*
X17283D02*
X17407D01*
X17052Y18727D02*
X17237D01*
X17283D02*
X17407D01*
X17052Y18731D02*
X17237D01*
X17283D02*
X17407D01*
X17052Y18734D02*
X17237D01*
X17283D02*
X17407D01*
X17052Y18737D02*
X17237D01*
X17283D02*
X17407D01*
X17052Y18740D02*
X17237D01*
X17283D02*
X17407D01*
X17052Y18743D02*
X17233D01*
X17286D02*
X17407D01*
X17052Y18745D02*
X17230D01*
X17289D02*
X17407D01*
X17052Y18749D02*
X17228D01*
X17292D02*
X17407D01*
X17052Y18752D02*
X17226D01*
X17294D02*
X17407D01*
X17052Y18755D02*
X17224D01*
X17295D02*
X17367D01*
X17392D02*
X17407D01*
X17052Y18758D02*
X17222D01*
X17297D02*
X17360D01*
X17399D02*
X17407D01*
X17052Y18761D02*
X17221D01*
X17298D02*
X17356D01*
X17404D02*
X17407D01*
X17052Y18764D02*
X17221D01*
X17299D02*
X17352D01*
X17052Y18767D02*
X17220D01*
X17299D02*
X17349D01*
X17052Y18770D02*
X17220D01*
X17299D02*
X17347D01*
X17052Y18773D02*
X17220D01*
X17300D02*
X17345D01*
X17052Y18776D02*
X17220D01*
X17299D02*
X17343D01*
X17052Y18779D02*
X17220D01*
X17299D02*
X17342D01*
X17052Y18782D02*
X17221D01*
X17299D02*
X17341D01*
X17052Y18785D02*
X17221D01*
X17298D02*
X17340D01*
X17052Y18788D02*
X17222D01*
X17297D02*
X17340D01*
X17052Y18791D02*
X17224D01*
X17295D02*
X17340D01*
X17052Y18794D02*
X17226D01*
X17294D02*
X17340D01*
X17052Y18797D02*
X17228D01*
X17292D02*
X17340D01*
X17052Y18800D02*
X17230D01*
X17289D02*
X17340D01*
X17052Y18802D02*
X17233D01*
X17286D02*
X17341D01*
X17052Y18805D02*
X17237D01*
X17282D02*
X17342D01*
X17052Y18809D02*
X17242D01*
X17277D02*
X17343D01*
X17052Y18812D02*
X17251D01*
X17268D02*
X17344D01*
X17052Y18815D02*
X17346D01*
X17052Y18817D02*
X17348D01*
X17052Y18820D02*
X17351D01*
X17052Y18824D02*
X17354D01*
X17052Y18827D02*
X17359D01*
X17052Y18830D02*
X17364D01*
X17052Y18833D02*
X17387D01*
X17052Y18836D02*
X17390D01*
X17052Y18839D02*
X17393D01*
X17052Y18842D02*
X17396D01*
X17052Y18845D02*
X17399D01*
X17052Y18848D02*
X17402D01*
X17052Y18851D02*
X17405D01*
X17052Y18854D02*
X17408D01*
X17052Y18857D02*
X17087D01*
X17117D02*
X17411D01*
X17052Y18860D02*
X17076D01*
X17128D02*
X17414D01*
X17052Y18863D02*
X17069D01*
X17135D02*
X17417D01*
X17052Y18866D02*
X17063D01*
X17141D02*
X17417D01*
X17052Y18869D02*
X17058D01*
X17146D02*
X17417D01*
X17052Y18872D02*
X17054D01*
X17150D02*
X17417D01*
X17153Y18875D02*
X17417D01*
X17157Y18878D02*
X17417D01*
X17160Y18881D02*
X17417D01*
X17162Y18884D02*
X17417D01*
X17164Y18887D02*
X17417D01*
X17167Y18890D02*
X17417D01*
X17168Y18892D02*
X17185D01*
X17170Y18895D02*
X17185D01*
X17172Y18899D02*
X17185D01*
X17173Y18902D02*
X17185D01*
X17174Y18905D02*
X17185D01*
X17175Y18908D02*
X17185D01*
X17176Y18911D02*
X17185D01*
X17177Y18914D02*
X17185D01*
X17178Y18917D02*
X17185D01*
X17178Y18920D02*
X17185D01*
X17179Y18923D02*
X17185D01*
X17179Y18926D02*
X17185D01*
X17179Y18929D02*
X17185D01*
X17180Y18932D02*
X17185D01*
X17180Y18935D02*
X17185D01*
X17179Y18938D02*
X17185D01*
X17179Y18941D02*
X17185D01*
X17179Y18944D02*
X17185D01*
X17178Y18947D02*
X17185D01*
X17178Y18950D02*
X17185D01*
X17177Y18953D02*
X17185D01*
X17176Y18956D02*
X17185D01*
X17175Y18959D02*
X17185D01*
X17174Y18962D02*
X17185D01*
X17173Y18965D02*
X17185D01*
X17171Y18968D02*
X17185D01*
X17170Y18971D02*
X17185D01*
X17168Y18974D02*
X17185D01*
X17166Y18977D02*
X17185D01*
X17164Y18980D02*
X17185D01*
X17264Y17859D02*
X17271Y17865D01*
X17281Y17868*
X17290Y17869*
X17300Y17868*
X17309Y17864*
X17317Y17858*
Y18059*
X17309Y18051*
X17299Y18045*
X17288Y18043*
X17277Y18043*
X17267Y18047*
Y17895*
X17264*
Y17859*
X17316D02*
X17317D01*
X17264Y17862D02*
X17267D01*
X17312D02*
X17317D01*
X17264Y17865D02*
X17272D01*
X17308D02*
X17317D01*
X17264Y17868D02*
X17279D01*
X17300D02*
X17317D01*
X17264Y17871D02*
X17317D01*
X17264Y17874D02*
X17317D01*
X17264Y17877D02*
X17317D01*
X17264Y17880D02*
X17317D01*
X17264Y17883D02*
X17317D01*
X17264Y17886D02*
X17317D01*
X17264Y17889D02*
X17317D01*
X17264Y17892D02*
X17317D01*
X17267Y17895D02*
X17317D01*
X17267Y17898D02*
X17317D01*
X17267Y17901D02*
X17317D01*
X17267Y17904D02*
X17317D01*
X17267Y17907D02*
X17317D01*
X17267Y17910D02*
X17317D01*
X17267Y17913D02*
X17317D01*
X17267Y17916D02*
X17317D01*
X17267Y17919D02*
X17317D01*
X17267Y17922D02*
X17317D01*
X17267Y17925D02*
X17317D01*
X17267Y17928D02*
X17317D01*
X17267Y17931D02*
X17317D01*
X17267Y17934D02*
X17317D01*
X17267Y17937D02*
X17317D01*
X17267Y17940D02*
X17317D01*
X17267Y17943D02*
X17317D01*
X17267Y17946D02*
X17317D01*
X17267Y17949D02*
X17317D01*
X17267Y17952D02*
X17317D01*
X17267Y17955D02*
X17317D01*
X17267Y17958D02*
X17317D01*
X17267Y17961D02*
X17317D01*
X17267Y17964D02*
X17317D01*
X17267Y17967D02*
X17317D01*
X17267Y17970D02*
X17317D01*
X17267Y17973D02*
X17317D01*
X17267Y17976D02*
X17317D01*
X17267Y17979D02*
X17317D01*
X17267Y17982D02*
X17317D01*
X17267Y17985D02*
X17317D01*
X17267Y17988D02*
X17317D01*
X17267Y17991D02*
X17317D01*
X17267Y17994D02*
X17317D01*
X17267Y17997D02*
X17317D01*
X17267Y18000D02*
X17317D01*
X17267Y18003D02*
X17317D01*
X17267Y18006D02*
X17317D01*
X17267Y18009D02*
X17317D01*
X17267Y18012D02*
X17317D01*
X17267Y18015D02*
X17317D01*
X17267Y18018D02*
X17317D01*
X17267Y18021D02*
X17317D01*
X17267Y18024D02*
X17317D01*
X17267Y18027D02*
X17317D01*
X17267Y18030D02*
X17317D01*
X17267Y18033D02*
X17317D01*
X17267Y18036D02*
X17317D01*
X17267Y18039D02*
X17317D01*
X17267Y18042D02*
X17317D01*
X17267Y18045D02*
X17271D01*
X17298D02*
X17317D01*
X17305Y18048D02*
X17317D01*
X17309Y18051D02*
X17317D01*
X17313Y18054D02*
X17317D01*
X17315Y18057D02*
X17317D01*
X17913Y17580D02*
Y17482D01*
X17934Y17461*
X18126*
X18109Y17470*
X18093Y17481*
X18079Y17494*
X18068Y17510*
X18059Y17527*
X18052Y17545*
X18048Y17563*
X18046Y17583*
X18048Y17602*
X18052Y17621*
X18059Y17639*
X18068Y17655*
X18080Y17671*
X18093Y17684*
X18109Y17695*
X18125Y17704*
X18143Y17711*
X18162Y17715*
X18181Y17716*
X18200Y17714*
X18218Y17710*
X18236Y17703*
X18253Y17694*
X18268Y17682*
X18281Y17669*
X18293Y17653*
X18302Y17636*
X18386*
Y17588*
X18389*
Y17584*
X18407*
X18414Y17583*
X18422Y17580*
X18428Y17575*
X18465Y17538*
X18536*
X18541Y17546*
X18546Y17554*
X18535Y17547*
X18523Y17542*
X18510Y17540*
X18497Y17541*
X18484Y17544*
X18472Y17550*
X18462Y17558*
X18453Y17568*
X18447Y17579*
X18443Y17592*
X18442Y17605*
X18443Y17618*
X18447Y17630*
X18453Y17642*
X18462Y17652*
X18472Y17660*
X18484Y17665*
X18496Y17669*
X18509Y17669*
X18522Y17667*
X18535Y17663*
X18546Y17656*
X18538Y17667*
X18532Y17681*
X18530Y17695*
X18530Y17709*
X18533Y17723*
X18538Y17736*
X18546Y17748*
X18535Y17740*
X18522Y17736*
X18508Y17734*
X18494Y17735*
X18481Y17739*
X18469Y17745*
X18459Y17754*
X18451Y17765*
X18445Y17778*
X18442Y17791*
X18442Y17805*
X18445Y17818*
X18450Y17831*
X18431Y17811*
X18426Y17808*
X18421Y17805*
X18415Y17805*
X18309*
X18251Y17746*
X18246Y17743*
X18241Y17740*
X18235Y17740*
X17934*
X17913Y17718*
Y17645*
X17921Y17638*
X17926Y17628*
X17929Y17618*
Y17607*
X17926Y17597*
X17921Y17587*
X17913Y17580*
X17932Y17463D02*
X18121D01*
X17929Y17466D02*
X18115D01*
X17926Y17469D02*
X18110D01*
X17923Y17472D02*
X18105D01*
X17920Y17475D02*
X18101D01*
X17917Y17478D02*
X18097D01*
X17914Y17481D02*
X18093D01*
X17913Y17484D02*
X18090D01*
X17913Y17487D02*
X18087D01*
X17913Y17490D02*
X18084D01*
X17913Y17493D02*
X18081D01*
X17913Y17496D02*
X18078D01*
X17913Y17499D02*
X18076D01*
X17913Y17502D02*
X18073D01*
X17913Y17505D02*
X18071D01*
X17913Y17508D02*
X18069D01*
X17913Y17511D02*
X18067D01*
X17913Y17514D02*
X18065D01*
X17913Y17517D02*
X18064D01*
X17913Y17520D02*
X18062D01*
X17913Y17523D02*
X18060D01*
X17913Y17526D02*
X18059D01*
X17913Y17529D02*
X18058D01*
X17913Y17532D02*
X18056D01*
X17913Y17535D02*
X18055D01*
X17913Y17538D02*
X18054D01*
X17913Y17541D02*
X18053D01*
X18462D02*
X18498D01*
X18514D02*
X18537D01*
X17913Y17544D02*
X18052D01*
X18459D02*
X18485D01*
X18527D02*
X18539D01*
X17913Y17547D02*
X18051D01*
X18456D02*
X18478D01*
X18534D02*
X18541D01*
X17913Y17550D02*
X18050D01*
X18453D02*
X18472D01*
X18540D02*
X18543D01*
X17913Y17553D02*
X18050D01*
X18450D02*
X18468D01*
X18544D02*
X18545D01*
X17913Y17556D02*
X18049D01*
X18447D02*
X18464D01*
X17913Y17559D02*
X18048D01*
X18444D02*
X18461D01*
X17913Y17562D02*
X18048D01*
X18441D02*
X18458D01*
X17913Y17565D02*
X18047D01*
X18438D02*
X18455D01*
X17913Y17568D02*
X18047D01*
X18435D02*
X18453D01*
X17913Y17571D02*
X18047D01*
X18432D02*
X18451D01*
X17913Y17574D02*
X18047D01*
X18429D02*
X18449D01*
X17913Y17577D02*
X18046D01*
X18426D02*
X18448D01*
X17913Y17580D02*
X18046D01*
X18421D02*
X18447D01*
X17916Y17583D02*
X18046D01*
X18414D02*
X18445D01*
X17919Y17586D02*
X18046D01*
X18389D02*
X18444D01*
X17922Y17589D02*
X18046D01*
X18386D02*
X18444D01*
X17924Y17592D02*
X18047D01*
X18386D02*
X18443D01*
X17925Y17595D02*
X18047D01*
X18386D02*
X18442D01*
X17927Y17598D02*
X18047D01*
X18386D02*
X18442D01*
X17928Y17601D02*
X18047D01*
X18386D02*
X18442D01*
X17929Y17604D02*
X18048D01*
X18386D02*
X18442D01*
X17929Y17607D02*
X18048D01*
X18386D02*
X18442D01*
X17929Y17610D02*
X18049D01*
X18386D02*
X18442D01*
X17930Y17613D02*
X18050D01*
X18386D02*
X18442D01*
X17929Y17616D02*
X18050D01*
X18386D02*
X18442D01*
X17929Y17619D02*
X18051D01*
X18386D02*
X18443D01*
X17928Y17622D02*
X18052D01*
X18386D02*
X18444D01*
X17928Y17625D02*
X18053D01*
X18386D02*
X18445D01*
X17927Y17628D02*
X18054D01*
X18386D02*
X18446D01*
X17925Y17631D02*
X18055D01*
X18386D02*
X18447D01*
X17923Y17634D02*
X18056D01*
X18386D02*
X18448D01*
X17921Y17637D02*
X18058D01*
X18301D02*
X18450D01*
X17919Y17640D02*
X18059D01*
X18300D02*
X18452D01*
X17916Y17643D02*
X18061D01*
X18299D02*
X18454D01*
X17913Y17646D02*
X18062D01*
X18297D02*
X18456D01*
X17913Y17649D02*
X18064D01*
X18295D02*
X18459D01*
X17913Y17652D02*
X18066D01*
X18294D02*
X18462D01*
X17913Y17655D02*
X18068D01*
X18292D02*
X18465D01*
X17913Y17658D02*
X18070D01*
X18290D02*
X18469D01*
X18543D02*
X18544D01*
X17913Y17661D02*
X18072D01*
X18288D02*
X18474D01*
X18538D02*
X18542D01*
X17913Y17664D02*
X18074D01*
X18285D02*
X18480D01*
X18532D02*
X18540D01*
X17913Y17667D02*
X18076D01*
X18283D02*
X18488D01*
X18524D02*
X18538D01*
X17913Y17670D02*
X18079D01*
X18280D02*
X18537D01*
X17913Y17673D02*
X18081D01*
X18278D02*
X18535D01*
X17913Y17676D02*
X18084D01*
X18275D02*
X18534D01*
X17913Y17679D02*
X18087D01*
X18272D02*
X18533D01*
X17913Y17682D02*
X18091D01*
X18269D02*
X18532D01*
X17913Y17685D02*
X18094D01*
X18265D02*
X18531D01*
X17913Y17688D02*
X18098D01*
X18261D02*
X18531D01*
X17913Y17691D02*
X18102D01*
X18257D02*
X18530D01*
X17913Y17694D02*
X18106D01*
X18253D02*
X18530D01*
X17913Y17697D02*
X18111D01*
X18248D02*
X18530D01*
X17913Y17700D02*
X18116D01*
X18243D02*
X18529D01*
X17913Y17703D02*
X18122D01*
X18237D02*
X18529D01*
X17913Y17706D02*
X18129D01*
X18230D02*
X18530D01*
X17913Y17709D02*
X18137D01*
X18222D02*
X18530D01*
X17913Y17712D02*
X18147D01*
X18212D02*
X18530D01*
X17913Y17715D02*
X18163D01*
X18197D02*
X18531D01*
X17913Y17718D02*
X18531D01*
X17915Y17721D02*
X18532D01*
X17918Y17724D02*
X18533D01*
X17921Y17727D02*
X18534D01*
X17924Y17730D02*
X18535D01*
X17927Y17733D02*
X18537D01*
X17930Y17736D02*
X18490D01*
X18522D02*
X18538D01*
X17933Y17739D02*
X18481D01*
X18531D02*
X18540D01*
X18245Y17742D02*
X18475D01*
X18537D02*
X18542D01*
X18249Y17745D02*
X18470D01*
X18542D02*
X18544D01*
X18252Y17748D02*
X18466D01*
X18255Y17751D02*
X18462D01*
X18258Y17754D02*
X18459D01*
X18261Y17757D02*
X18457D01*
X18264Y17760D02*
X18454D01*
X18267Y17763D02*
X18452D01*
X18270Y17766D02*
X18450D01*
X18273Y17769D02*
X18449D01*
X18276Y17772D02*
X18447D01*
X18279Y17775D02*
X18446D01*
X18282Y17778D02*
X18445D01*
X18285Y17781D02*
X18444D01*
X18288Y17784D02*
X18443D01*
X18291Y17787D02*
X18443D01*
X18294Y17790D02*
X18442D01*
X18297Y17793D02*
X18442D01*
X18300Y17796D02*
X18442D01*
X18303Y17799D02*
X18442D01*
X18306Y17802D02*
X18442D01*
X18418Y17805D02*
X18442D01*
X18426Y17808D02*
X18442D01*
X18430Y17811D02*
X18443D01*
X18433Y17814D02*
X18443D01*
X18436Y17817D02*
X18444D01*
X18439Y17820D02*
X18445D01*
X18442Y17823D02*
X18446D01*
X18445Y17826D02*
X18448D01*
X18448Y17829D02*
X18449D01*
X18110Y17383D02*
Y17093D01*
X18065Y17048*
X17890*
X17880Y17058*
Y17093*
X17850Y17123*
X17285*
X17265Y17102*
Y17043*
X17250Y17028*
X17220*
X17210Y17038*
Y17138*
X17235Y17163*
X17960*
X17980Y17183*
Y17352*
X18015Y17388*
X18100*
X18105Y17392*
X18110Y17383*
X17219Y17029D02*
X17251D01*
X17216Y17032D02*
X17254D01*
X17213Y17035D02*
X17257D01*
X17210Y17038D02*
X17260D01*
X17210Y17041D02*
X17263D01*
X17210Y17044D02*
X17265D01*
X17210Y17047D02*
X17265D01*
X17210Y17050D02*
X17265D01*
X17888D02*
X18067D01*
X17210Y17052D02*
X17265D01*
X17885D02*
X18070D01*
X17210Y17055D02*
X17265D01*
X17882D02*
X18073D01*
X17210Y17059D02*
X17265D01*
X17880D02*
X18076D01*
X17210Y17062D02*
X17265D01*
X17880D02*
X18079D01*
X17210Y17065D02*
X17265D01*
X17880D02*
X18082D01*
X17210Y17067D02*
X17265D01*
X17880D02*
X18085D01*
X17210Y17070D02*
X17265D01*
X17880D02*
X18088D01*
X17210Y17074D02*
X17265D01*
X17880D02*
X18091D01*
X17210Y17077D02*
X17265D01*
X17880D02*
X18094D01*
X17210Y17080D02*
X17265D01*
X17880D02*
X18097D01*
X17210Y17083D02*
X17265D01*
X17880D02*
X18100D01*
X17210Y17086D02*
X17265D01*
X17880D02*
X18103D01*
X17210Y17089D02*
X17265D01*
X17880D02*
X18106D01*
X17210Y17092D02*
X17265D01*
X17880D02*
X18109D01*
X17210Y17095D02*
X17265D01*
X17878D02*
X18110D01*
X17210Y17098D02*
X17265D01*
X17875D02*
X18110D01*
X17210Y17101D02*
X17265D01*
X17872D02*
X18110D01*
X17210Y17104D02*
X17266D01*
X17869D02*
X18110D01*
X17210Y17107D02*
X17269D01*
X17866D02*
X18110D01*
X17210Y17110D02*
X17272D01*
X17863D02*
X18110D01*
X17210Y17113D02*
X17275D01*
X17860D02*
X18110D01*
X17210Y17116D02*
X17278D01*
X17857D02*
X18110D01*
X17210Y17119D02*
X17281D01*
X17854D02*
X18110D01*
X17210Y17122D02*
X17284D01*
X17851D02*
X18110D01*
X17210Y17125D02*
X18110D01*
X17210Y17128D02*
X18110D01*
X17210Y17131D02*
X18110D01*
X17210Y17134D02*
X18110D01*
X17210Y17137D02*
X18110D01*
X17212Y17140D02*
X18110D01*
X17215Y17142D02*
X18110D01*
X17218Y17145D02*
X18110D01*
X17221Y17149D02*
X18110D01*
X17224Y17152D02*
X18110D01*
X17227Y17155D02*
X18110D01*
X17230Y17158D02*
X18110D01*
X17233Y17161D02*
X18110D01*
X17961Y17164D02*
X18110D01*
X17964Y17167D02*
X18110D01*
X17967Y17170D02*
X18110D01*
X17970Y17173D02*
X18110D01*
X17973Y17176D02*
X18110D01*
X17976Y17179D02*
X18110D01*
X17979Y17182D02*
X18110D01*
X17980Y17185D02*
X18110D01*
X17980Y17188D02*
X18110D01*
X17980Y17191D02*
X18110D01*
X17980Y17194D02*
X18110D01*
X17980Y17197D02*
X18110D01*
X17980Y17200D02*
X18110D01*
X17980Y17203D02*
X18110D01*
X17980Y17206D02*
X18110D01*
X17980Y17209D02*
X18110D01*
X17980Y17212D02*
X18110D01*
X17980Y17215D02*
X18110D01*
X17980Y17218D02*
X18110D01*
X17980Y17221D02*
X18110D01*
X17980Y17224D02*
X18110D01*
X17980Y17227D02*
X18110D01*
X17980Y17230D02*
X18110D01*
X17980Y17233D02*
X18110D01*
X17980Y17236D02*
X18110D01*
X17980Y17239D02*
X18110D01*
X17980Y17242D02*
X18110D01*
X17980Y17245D02*
X18110D01*
X17980Y17248D02*
X18110D01*
X17980Y17251D02*
X18110D01*
X17980Y17254D02*
X18110D01*
X17980Y17257D02*
X18110D01*
X17980Y17260D02*
X18110D01*
X17980Y17263D02*
X18110D01*
X17980Y17266D02*
X18110D01*
X17980Y17269D02*
X18110D01*
X17980Y17272D02*
X18110D01*
X17980Y17275D02*
X18110D01*
X17980Y17278D02*
X18110D01*
X17980Y17281D02*
X18110D01*
X17980Y17284D02*
X18110D01*
X17980Y17287D02*
X18110D01*
X17980Y17290D02*
X18110D01*
X17980Y17293D02*
X18110D01*
X17980Y17296D02*
X18110D01*
X17980Y17299D02*
X18110D01*
X17980Y17302D02*
X18110D01*
X17980Y17305D02*
X18110D01*
X17980Y17308D02*
X18110D01*
X17980Y17311D02*
X18110D01*
X17980Y17314D02*
X18110D01*
X17980Y17317D02*
X18110D01*
X17980Y17320D02*
X18110D01*
X17980Y17323D02*
X18110D01*
X17980Y17326D02*
X18110D01*
X17980Y17328D02*
X18110D01*
X17980Y17332D02*
X18110D01*
X17980Y17335D02*
X18110D01*
X17980Y17338D02*
X18110D01*
X17980Y17340D02*
X18110D01*
X17980Y17344D02*
X18110D01*
X17980Y17346D02*
X18110D01*
X17980Y17350D02*
X18110D01*
X17980Y17352D02*
X18110D01*
X17983Y17356D02*
X18110D01*
X17986Y17359D02*
X18110D01*
X17989Y17362D02*
X18110D01*
X17992Y17365D02*
X18110D01*
X17995Y17368D02*
X18110D01*
X17998Y17370D02*
X18110D01*
X18001Y17374D02*
X18110D01*
X18004Y17377D02*
X18110D01*
X18007Y17380D02*
X18110D01*
X18010Y17383D02*
X18110D01*
X18013Y17386D02*
X18108D01*
X18101Y17389D02*
X18107D01*
X18104Y17392D02*
X18105D01*
X18219Y18672D02*
Y18709D01*
X18235D02*
X18203D01*
X18185Y18672D02*
Y18709D01*
X18166*
X18160Y18706*
X18156Y18703*
X18153Y18697*
Y18684*
X18156Y18678*
X18160Y18675*
X18166Y18672*
X18185*
X18113Y18688D02*
X18103D01*
Y18684*
X18106Y18678*
X18110Y18675*
X18116Y18672*
X18122*
X18128Y18675*
X18131Y18678*
X18135Y18684*
Y18697*
X18131Y18703*
X18128Y18706*
X18122Y18709*
X18116*
X18110Y18706*
X18106Y18703*
X18103Y18697*
X18063Y18688D02*
X18053D01*
Y18684*
X18056Y18678*
X18060Y18675*
X18066Y18672*
X18072*
X18078Y18675*
X18081Y18678*
X18085Y18684*
Y18697*
X18081Y18703*
X18078Y18706*
X18072Y18709*
X18066*
X18060Y18706*
X18056Y18703*
X18053Y18697*
X18035Y18681D02*
X18031Y18675D01*
X18025Y18672*
X18013*
X18006Y18675*
X18003Y18681*
X18006Y18688*
X18013Y18691*
X18025*
X18031Y18694*
X18035Y18700*
X18031Y18706*
X18025Y18709*
X18013*
X18006Y18706*
X18003Y18700*
X17985Y18672D02*
Y18709D01*
X17969Y18691*
X17953Y18709*
Y18672*
X17935D02*
X17903D01*
X17875D02*
X17869Y18675D01*
X17863Y18681*
X17860Y18691*
Y18700*
X17863Y18706*
X17869Y18709*
X17875*
X17881Y18706*
X17885Y18700*
X17881Y18694*
X17875Y18691*
X17869*
X17863Y18694*
X17860Y18700*
X17831Y18675D02*
X17825Y18672D01*
X17819*
X17813Y18675*
X17810Y18681*
Y18700*
X17813Y18706*
X17819Y18709*
X17825*
X17831Y18706*
X17835Y18700*
Y18681*
X17831Y18675*
X17813Y18706*
X17781Y18675D02*
X17775Y18672D01*
X17769*
X17763Y18675*
X17760Y18681*
Y18700*
X17763Y18706*
X17769Y18709*
X17775*
X17781Y18706*
X17785Y18700*
Y18681*
X17781Y18675*
X17763Y18706*
X18563Y18892D02*
Y18578D01*
X18561Y18570*
X18558Y18563*
Y18336*
X18569Y18345*
X18582Y18351*
X18595Y18353*
X18609Y18353*
X18623Y18351*
X18636Y18345*
X18647Y18337*
X18657Y18326*
X18664Y18314*
X18668Y18301*
X18670Y18287*
X18668Y18273*
X18664Y18260*
X18657Y18247*
X18647Y18237*
X18636Y18229*
X18623Y18223*
X18609Y18220*
X18595Y18220*
X18582Y18223*
X18569Y18229*
X18558Y18237*
Y18225*
X18565Y18219*
X18570Y18211*
X18573Y18202*
X18575Y18192*
X18573Y18182*
X18569Y18173*
X18563Y18164*
X18555Y18158*
X18545Y18154*
X18535Y18153*
X18524Y18154*
X18515Y18158*
X18506Y18164*
X18500Y18173*
X18496Y18182*
X18495Y18192*
X18496Y18202*
X18499Y18211*
X18504Y18219*
X18512Y18225*
Y18578*
X18513Y18585*
X18517Y18592*
Y18829*
X18508Y18825*
X18498Y18823*
X18488Y18823*
X18481Y18816*
X18491Y18812*
X18499Y18804*
X18505Y18795*
X18509Y18785*
X18509Y18774*
X18507Y18763*
X18502Y18754*
X18494Y18746*
X18484Y18740*
X18474Y18738*
X18463Y18738*
X18453Y18728*
Y17943*
X18458Y17952*
X18466Y17960*
X18476Y17965*
X18486Y17967*
X18497Y17967*
X18508Y17963*
X18517Y17957*
X18524Y17948*
X18528Y17938*
X18530Y17927*
X18528Y17917*
X18525Y17908*
X18519Y17900*
X18511Y17894*
X18509Y17890*
X18506Y17886*
X18473Y17854*
X18486Y17859*
X18499Y17862*
X18513Y17862*
X18527Y17859*
X18539Y17854*
X18550Y17845*
X18559Y17835*
X18566Y17823*
X18570Y17809*
X18570Y17796*
X18568Y17782*
X18564Y17769*
X18556Y17758*
X18568Y17765*
X18581Y17771*
X18594Y17773*
X18608Y17774*
X18622Y17771*
X18635Y17766*
X18646Y17759*
X18639Y17770*
X18635Y17783*
X18634Y17797*
X18635Y17810*
X18639Y17823*
X18646Y17835*
X18655Y17845*
X18666Y17853*
X18678Y17858*
X18691Y17861*
X18705*
X18718Y17858*
X18730Y17853*
X18741Y17845*
X18750Y17835*
X18757Y17823*
X18761Y17810*
X18763Y17797*
X18761Y17784*
X18758Y17772*
X18751Y17760*
X18743Y17750*
X18733Y17742*
X18721Y17737*
X18709Y17733*
X18696Y17732*
X18683Y17734*
X18671Y17739*
X18660Y17745*
X18667Y17732*
X18672Y17718*
X18674Y17703*
X18673Y17689*
X18669Y17674*
X18662Y17661*
X18653Y17649*
X18641Y17640*
X18627Y17633*
X18613Y17630*
X18598Y17629*
X18583Y17631*
X18569Y17637*
X18557Y17645*
X18563Y17634*
X18568Y17623*
X18570Y17611*
X18570Y17598*
X18568Y17586*
X18563Y17575*
X18556Y17564*
X18568Y17572*
X18581Y17577*
X18594Y17580*
X18608Y17580*
X18622Y17578*
X18635Y17573*
X18646Y17565*
X18639Y17577*
X18635Y17590*
X18634Y17603*
X18635Y17617*
X18639Y17630*
X18646Y17641*
X18655Y17651*
X18666Y17659*
X18678Y17665*
X18691Y17668*
X18705*
X18718Y17665*
X18730Y17659*
X18741Y17651*
X18750Y17641*
X18757Y17630*
X18761Y17617*
X18763Y17603*
X18761Y17591*
X18758Y17578*
X18751Y17567*
X18743Y17557*
X18733Y17549*
X18721Y17543*
X18709Y17540*
X18696Y17539*
X18683Y17541*
X18671Y17545*
X18660Y17552*
X18667Y17539*
X18672Y17525*
X18674Y17510*
X18673Y17495*
X18669Y17481*
X18662Y17468*
X18653Y17456*
X18641Y17447*
X18627Y17440*
X18613Y17436*
X18598Y17436*
X18583Y17438*
X18569Y17443*
X18557Y17451*
X18563Y17442*
X18567Y17432*
X18570Y17422*
X18571Y17411*
X18569Y17398*
X18565Y17385*
X18558Y17373*
X18549Y17363*
X18538Y17355*
X18526Y17350*
X18513Y17347*
X18499*
X18486Y17350*
X18474Y17355*
X18463Y17363*
X18454Y17373*
X18447Y17385*
X18443Y17398*
X18442Y17411*
X18443Y17424*
X18447Y17437*
X18453Y17448*
X18462Y17458*
X18472Y17466*
X18484Y17472*
X18496Y17475*
X18509Y17476*
X18522Y17474*
X18535Y17469*
X18546Y17462*
X18541Y17469*
X18536Y17477*
X18452*
X18444Y17478*
X18437Y17481*
X18430Y17486*
X18394Y17522*
X18389*
Y17518*
X18386*
Y17265*
X18270*
Y17485*
X18256Y17473*
X18241Y17464*
X18225Y17457*
X18208Y17452*
X18190Y17450*
X18201Y17439*
X18204Y17434*
X18207Y17428*
X18208Y17423*
Y17395*
X18215Y17389*
X18220Y17381*
X18223Y17372*
X18225Y17363*
X18223Y17352*
X18219Y17343*
X18213Y17334*
X18205Y17328*
X18195Y17324*
X18185Y17323*
X18174Y17324*
X18165Y17328*
X18156Y17334*
X18150Y17343*
X18146Y17352*
X18145Y17363*
X18146Y17372*
X18149Y17381*
X18154Y17389*
X18162Y17395*
Y17413*
X18160Y17415*
X18126*
X18134Y17406*
X18139Y17396*
X18141Y17385*
X18140Y17374*
X18136Y17363*
X18130Y17354*
Y17320*
X18137*
Y17317*
X18185*
Y17193*
X18137*
Y17190*
X18130*
Y17093*
X18128Y17085*
X18124Y17078*
X18079Y17033*
X18078Y17033*
X18293*
Y17084*
X18284Y17078*
X18275Y17074*
X18264Y17073*
X18254Y17074*
X18244Y17078*
X18236Y17084*
X18230Y17093*
X18226Y17102*
X18225Y17113*
X18226Y17123*
X18230Y17133*
X18237Y17142*
X18246Y17148*
X18257Y17152*
Y17170*
X18249Y17176*
X18244Y17184*
X18241Y17193*
X18240Y17203*
X18241Y17213*
X18245Y17223*
X18251Y17231*
X18260Y17237*
X18269Y17241*
X18280Y17243*
X18290Y17241*
X18300Y17237*
X18308Y17231*
X18314Y17223*
X18318Y17213*
X18320Y17203*
X18318Y17193*
X18315Y17184*
X18310Y17176*
X18303Y17170*
Y17162*
X18334*
X18338Y17172*
X18345Y17180*
X18354Y17186*
X18364Y17189*
X18375*
X18385Y17186*
X18394Y17180*
X18401Y17172*
X18405Y17162*
X18447*
X18442Y17171*
X18439Y17181*
X18438Y17191*
X18440Y17201*
X18445Y17210*
Y17211*
X18440*
Y17306*
X18515*
Y17303*
X18581*
Y17227*
X18613*
Y17301*
X18679*
Y17304*
X18754*
Y17248*
X18755Y17243*
Y17192*
X18753Y17185*
X18749Y17178*
X18734Y17163*
X18731Y17161*
X18727Y17159*
X18741Y17156*
X18753Y17150*
X18765Y17142*
Y18892*
X18563*
X18763Y17410D02*
X18761Y17397D01*
X18757Y17384*
X18750Y17372*
X18741Y17362*
X18730Y17354*
X18718Y17349*
X18705Y17346*
X18691*
X18678Y17349*
X18666Y17354*
X18655Y17362*
X18646Y17372*
X18639Y17384*
X18635Y17397*
X18634Y17410*
X18635Y17423*
X18639Y17436*
X18646Y17448*
X18655Y17458*
X18666Y17466*
X18678Y17471*
X18691Y17474*
X18705*
X18718Y17471*
X18730Y17466*
X18741Y17458*
X18750Y17448*
X18757Y17436*
X18761Y17423*
X18763Y17410*
X18078Y17033D02*
X18293D01*
X18081Y17036D02*
X18293D01*
X18084Y17039D02*
X18293D01*
X18087Y17042D02*
X18293D01*
X18090Y17045D02*
X18293D01*
X18093Y17048D02*
X18293D01*
X18096Y17051D02*
X18293D01*
X18099Y17054D02*
X18293D01*
X18102Y17057D02*
X18293D01*
X18105Y17060D02*
X18293D01*
X18108Y17063D02*
X18293D01*
X18111Y17066D02*
X18293D01*
X18114Y17069D02*
X18293D01*
X18117Y17072D02*
X18293D01*
X18120Y17075D02*
X18252D01*
X18277D02*
X18293D01*
X18123Y17078D02*
X18245D01*
X18284D02*
X18293D01*
X18126Y17081D02*
X18241D01*
X18289D02*
X18293D01*
X18127Y17084D02*
X18237D01*
X18292D02*
X18293D01*
X18129Y17087D02*
X18234D01*
X18129Y17090D02*
X18232D01*
X18130Y17093D02*
X18230D01*
X18130Y17096D02*
X18228D01*
X18130Y17099D02*
X18227D01*
X18130Y17102D02*
X18226D01*
X18130Y17105D02*
X18225D01*
X18130Y17108D02*
X18225D01*
X18130Y17111D02*
X18225D01*
X18130Y17114D02*
X18225D01*
X18130Y17117D02*
X18225D01*
X18130Y17120D02*
X18225D01*
X18130Y17123D02*
X18226D01*
X18130Y17126D02*
X18227D01*
X18130Y17129D02*
X18228D01*
X18130Y17132D02*
X18229D01*
X18130Y17135D02*
X18231D01*
X18130Y17138D02*
X18233D01*
X18130Y17141D02*
X18236D01*
X18130Y17144D02*
X18239D01*
X18762D02*
X18765D01*
X18130Y17147D02*
X18244D01*
X18758D02*
X18765D01*
X18130Y17150D02*
X18249D01*
X18754D02*
X18765D01*
X18130Y17153D02*
X18257D01*
X18748D02*
X18765D01*
X18130Y17156D02*
X18257D01*
X18741D02*
X18765D01*
X18130Y17159D02*
X18257D01*
X18730D02*
X18765D01*
X18130Y17162D02*
X18257D01*
X18732D02*
X18765D01*
X18130Y17165D02*
X18257D01*
X18303D02*
X18335D01*
X18405D02*
X18445D01*
X18735D02*
X18765D01*
X18130Y17168D02*
X18257D01*
X18303D02*
X18336D01*
X18403D02*
X18443D01*
X18738D02*
X18765D01*
X18130Y17171D02*
X18256D01*
X18304D02*
X18337D01*
X18402D02*
X18442D01*
X18741D02*
X18765D01*
X18130Y17174D02*
X18252D01*
X18307D02*
X18339D01*
X18400D02*
X18440D01*
X18744D02*
X18765D01*
X18130Y17177D02*
X18249D01*
X18310D02*
X18341D01*
X18398D02*
X18439D01*
X18747D02*
X18765D01*
X18130Y17180D02*
X18247D01*
X18312D02*
X18344D01*
X18395D02*
X18439D01*
X18750D02*
X18765D01*
X18130Y17183D02*
X18245D01*
X18314D02*
X18348D01*
X18391D02*
X18438D01*
X18752D02*
X18765D01*
X18130Y17186D02*
X18243D01*
X18316D02*
X18353D01*
X18386D02*
X18438D01*
X18753D02*
X18765D01*
X18130Y17189D02*
X18242D01*
X18317D02*
X18361D01*
X18378D02*
X18438D01*
X18754D02*
X18765D01*
X18137Y17192D02*
X18241D01*
X18318D02*
X18438D01*
X18755D02*
X18765D01*
X18185Y17195D02*
X18240D01*
X18319D02*
X18439D01*
X18755D02*
X18765D01*
X18185Y17198D02*
X18240D01*
X18319D02*
X18439D01*
X18755D02*
X18765D01*
X18185Y17201D02*
X18240D01*
X18320D02*
X18440D01*
X18755D02*
X18765D01*
X18185Y17203D02*
X18240D01*
X18320D02*
X18441D01*
X18755D02*
X18765D01*
X18185Y17207D02*
X18240D01*
X18319D02*
X18443D01*
X18755D02*
X18765D01*
X18185Y17210D02*
X18240D01*
X18319D02*
X18444D01*
X18755D02*
X18765D01*
X18185Y17213D02*
X18241D01*
X18318D02*
X18440D01*
X18755D02*
X18765D01*
X18185Y17215D02*
X18242D01*
X18317D02*
X18440D01*
X18755D02*
X18765D01*
X18185Y17219D02*
X18243D01*
X18316D02*
X18440D01*
X18755D02*
X18765D01*
X18185Y17221D02*
X18244D01*
X18315D02*
X18440D01*
X18755D02*
X18765D01*
X18185Y17225D02*
X18246D01*
X18313D02*
X18440D01*
X18755D02*
X18765D01*
X18185Y17227D02*
X18248D01*
X18311D02*
X18440D01*
X18581D02*
X18613D01*
X18755D02*
X18765D01*
X18185Y17231D02*
X18251D01*
X18308D02*
X18440D01*
X18581D02*
X18613D01*
X18755D02*
X18765D01*
X18185Y17234D02*
X18254D01*
X18305D02*
X18440D01*
X18581D02*
X18613D01*
X18755D02*
X18765D01*
X18185Y17237D02*
X18259D01*
X18301D02*
X18440D01*
X18581D02*
X18613D01*
X18755D02*
X18765D01*
X18185Y17240D02*
X18264D01*
X18295D02*
X18440D01*
X18581D02*
X18613D01*
X18755D02*
X18765D01*
X18185Y17243D02*
X18440D01*
X18581D02*
X18613D01*
X18755D02*
X18765D01*
X18185Y17245D02*
X18440D01*
X18581D02*
X18613D01*
X18754D02*
X18765D01*
X18185Y17249D02*
X18440D01*
X18581D02*
X18613D01*
X18754D02*
X18765D01*
X18185Y17252D02*
X18440D01*
X18581D02*
X18613D01*
X18754D02*
X18765D01*
X18185Y17255D02*
X18440D01*
X18581D02*
X18613D01*
X18754D02*
X18765D01*
X18185Y17258D02*
X18440D01*
X18581D02*
X18613D01*
X18754D02*
X18765D01*
X18185Y17261D02*
X18440D01*
X18581D02*
X18613D01*
X18754D02*
X18765D01*
X18185Y17264D02*
X18440D01*
X18581D02*
X18613D01*
X18754D02*
X18765D01*
X18185Y17267D02*
X18270D01*
X18386D02*
X18440D01*
X18581D02*
X18613D01*
X18754D02*
X18765D01*
X18185Y17270D02*
X18270D01*
X18386D02*
X18440D01*
X18581D02*
X18613D01*
X18754D02*
X18765D01*
X18185Y17273D02*
X18270D01*
X18386D02*
X18440D01*
X18581D02*
X18613D01*
X18754D02*
X18765D01*
X18185Y17276D02*
X18270D01*
X18386D02*
X18440D01*
X18581D02*
X18613D01*
X18754D02*
X18765D01*
X18185Y17279D02*
X18270D01*
X18386D02*
X18440D01*
X18581D02*
X18613D01*
X18754D02*
X18765D01*
X18185Y17282D02*
X18270D01*
X18386D02*
X18440D01*
X18581D02*
X18613D01*
X18754D02*
X18765D01*
X18185Y17285D02*
X18270D01*
X18386D02*
X18440D01*
X18581D02*
X18613D01*
X18754D02*
X18765D01*
X18185Y17288D02*
X18270D01*
X18386D02*
X18440D01*
X18581D02*
X18613D01*
X18754D02*
X18765D01*
X18185Y17291D02*
X18270D01*
X18386D02*
X18440D01*
X18581D02*
X18613D01*
X18754D02*
X18765D01*
X18185Y17294D02*
X18270D01*
X18386D02*
X18440D01*
X18581D02*
X18613D01*
X18754D02*
X18765D01*
X18185Y17297D02*
X18270D01*
X18386D02*
X18440D01*
X18581D02*
X18613D01*
X18754D02*
X18765D01*
X18185Y17300D02*
X18270D01*
X18386D02*
X18440D01*
X18581D02*
X18613D01*
X18754D02*
X18765D01*
X18185Y17302D02*
X18270D01*
X18386D02*
X18440D01*
X18581D02*
X18679D01*
X18754D02*
X18765D01*
X18185Y17305D02*
X18270D01*
X18386D02*
X18440D01*
X18515D02*
X18765D01*
X18185Y17309D02*
X18270D01*
X18386D02*
X18765D01*
X18185Y17312D02*
X18270D01*
X18386D02*
X18765D01*
X18185Y17315D02*
X18270D01*
X18386D02*
X18765D01*
X18137Y17317D02*
X18270D01*
X18386D02*
X18765D01*
X18130Y17320D02*
X18270D01*
X18386D02*
X18765D01*
X18130Y17324D02*
X18176D01*
X18193D02*
X18270D01*
X18386D02*
X18765D01*
X18130Y17327D02*
X18167D01*
X18202D02*
X18270D01*
X18386D02*
X18765D01*
X18130Y17330D02*
X18162D01*
X18207D02*
X18270D01*
X18386D02*
X18765D01*
X18130Y17333D02*
X18158D01*
X18211D02*
X18270D01*
X18386D02*
X18765D01*
X18130Y17336D02*
X18155D01*
X18214D02*
X18270D01*
X18386D02*
X18765D01*
X18130Y17339D02*
X18153D01*
X18217D02*
X18270D01*
X18386D02*
X18765D01*
X18130Y17342D02*
X18151D01*
X18219D02*
X18270D01*
X18386D02*
X18765D01*
X18130Y17345D02*
X18149D01*
X18220D02*
X18270D01*
X18386D02*
X18765D01*
X18130Y17348D02*
X18147D01*
X18222D02*
X18270D01*
X18386D02*
X18496D01*
X18516D02*
X18682D01*
X18714D02*
X18765D01*
X18130Y17351D02*
X18146D01*
X18223D02*
X18270D01*
X18386D02*
X18484D01*
X18528D02*
X18673D01*
X18723D02*
X18765D01*
X18130Y17354D02*
X18146D01*
X18224D02*
X18270D01*
X18386D02*
X18477D01*
X18535D02*
X18667D01*
X18729D02*
X18765D01*
X18132Y17357D02*
X18145D01*
X18224D02*
X18270D01*
X18386D02*
X18472D01*
X18540D02*
X18662D01*
X18734D02*
X18765D01*
X18134Y17360D02*
X18145D01*
X18224D02*
X18270D01*
X18386D02*
X18468D01*
X18544D02*
X18658D01*
X18738D02*
X18765D01*
X18136Y17363D02*
X18145D01*
X18225D02*
X18270D01*
X18386D02*
X18464D01*
X18548D02*
X18655D01*
X18742D02*
X18765D01*
X18138Y17366D02*
X18145D01*
X18224D02*
X18270D01*
X18386D02*
X18461D01*
X18551D02*
X18652D01*
X18745D02*
X18765D01*
X18139Y17369D02*
X18145D01*
X18224D02*
X18270D01*
X18386D02*
X18458D01*
X18554D02*
X18649D01*
X18748D02*
X18765D01*
X18140Y17372D02*
X18146D01*
X18224D02*
X18270D01*
X18386D02*
X18455D01*
X18557D02*
X18647D01*
X18750D02*
X18765D01*
X18140Y17375D02*
X18146D01*
X18223D02*
X18270D01*
X18386D02*
X18453D01*
X18559D02*
X18644D01*
X18752D02*
X18765D01*
X18141Y17378D02*
X18148D01*
X18222D02*
X18270D01*
X18386D02*
X18451D01*
X18561D02*
X18643D01*
X18754D02*
X18765D01*
X18141Y17381D02*
X18149D01*
X18220D02*
X18270D01*
X18386D02*
X18449D01*
X18563D02*
X18641D01*
X18756D02*
X18765D01*
X18141Y17384D02*
X18151D01*
X18219D02*
X18270D01*
X18386D02*
X18448D01*
X18564D02*
X18639D01*
X18757D02*
X18765D01*
X18141Y17387D02*
X18153D01*
X18217D02*
X18270D01*
X18386D02*
X18446D01*
X18566D02*
X18638D01*
X18758D02*
X18765D01*
X18141Y17390D02*
X18155D01*
X18214D02*
X18270D01*
X18386D02*
X18445D01*
X18567D02*
X18637D01*
X18759D02*
X18765D01*
X18140Y17392D02*
X18158D01*
X18211D02*
X18270D01*
X18386D02*
X18444D01*
X18568D02*
X18636D01*
X18760D02*
X18765D01*
X18139Y17395D02*
X18162D01*
X18208D02*
X18270D01*
X18386D02*
X18443D01*
X18569D02*
X18635D01*
X18761D02*
X18765D01*
X18138Y17399D02*
X18162D01*
X18208D02*
X18270D01*
X18386D02*
X18443D01*
X18569D02*
X18635D01*
X18762D02*
X18765D01*
X18137Y17402D02*
X18162D01*
X18208D02*
X18270D01*
X18386D02*
X18442D01*
X18570D02*
X18634D01*
X18762D02*
X18765D01*
X18135Y17405D02*
X18162D01*
X18208D02*
X18270D01*
X18386D02*
X18442D01*
X18570D02*
X18634D01*
X18762D02*
X18765D01*
X18133Y17408D02*
X18162D01*
X18208D02*
X18270D01*
X18386D02*
X18442D01*
X18570D02*
X18634D01*
X18763D02*
X18765D01*
X18130Y17411D02*
X18162D01*
X18208D02*
X18270D01*
X18386D02*
X18442D01*
X18571D02*
X18634D01*
X18763D02*
X18765D01*
X18127Y17414D02*
X18161D01*
X18208D02*
X18270D01*
X18386D02*
X18442D01*
X18570D02*
X18634D01*
X18763D02*
X18765D01*
X18208Y17417D02*
X18270D01*
X18386D02*
X18442D01*
X18570D02*
X18634D01*
X18762D02*
X18765D01*
X18208Y17420D02*
X18270D01*
X18386D02*
X18442D01*
X18570D02*
X18634D01*
X18762D02*
X18765D01*
X18208Y17423D02*
X18270D01*
X18386D02*
X18443D01*
X18570D02*
X18635D01*
X18762D02*
X18765D01*
X18207Y17426D02*
X18270D01*
X18386D02*
X18443D01*
X18569D02*
X18636D01*
X18761D02*
X18765D01*
X18207Y17429D02*
X18270D01*
X18386D02*
X18444D01*
X18568D02*
X18636D01*
X18760D02*
X18765D01*
X18206Y17432D02*
X18270D01*
X18386D02*
X18445D01*
X18567D02*
X18637D01*
X18759D02*
X18765D01*
X18204Y17435D02*
X18270D01*
X18386D02*
X18446D01*
X18566D02*
X18639D01*
X18758D02*
X18765D01*
X18202Y17438D02*
X18270D01*
X18386D02*
X18447D01*
X18565D02*
X18585D01*
X18619D02*
X18640D01*
X18757D02*
X18765D01*
X18199Y17441D02*
X18270D01*
X18386D02*
X18449D01*
X18564D02*
X18575D01*
X18629D02*
X18641D01*
X18755D02*
X18765D01*
X18196Y17444D02*
X18270D01*
X18386D02*
X18450D01*
X18562D02*
X18569D01*
X18635D02*
X18643D01*
X18753D02*
X18765D01*
X18193Y17447D02*
X18270D01*
X18386D02*
X18452D01*
X18560D02*
X18563D01*
X18640D02*
X18645D01*
X18751D02*
X18765D01*
X18190Y17450D02*
X18270D01*
X18386D02*
X18454D01*
X18558D02*
X18559D01*
X18645D02*
X18647D01*
X18749D02*
X18765D01*
X18209Y17453D02*
X18270D01*
X18386D02*
X18456D01*
X18649D02*
X18650D01*
X18747D02*
X18765D01*
X18220Y17456D02*
X18270D01*
X18386D02*
X18459D01*
X18652D02*
X18652D01*
X18744D02*
X18765D01*
X18229Y17459D02*
X18270D01*
X18386D02*
X18462D01*
X18655D02*
X18656D01*
X18741D02*
X18765D01*
X18236Y17462D02*
X18270D01*
X18386D02*
X18466D01*
X18658D02*
X18659D01*
X18737D02*
X18765D01*
X18242Y17465D02*
X18270D01*
X18386D02*
X18470D01*
X18542D02*
X18544D01*
X18660D02*
X18664D01*
X18733D02*
X18765D01*
X18247Y17468D02*
X18270D01*
X18386D02*
X18474D01*
X18538D02*
X18542D01*
X18662D02*
X18669D01*
X18728D02*
X18765D01*
X18252Y17471D02*
X18270D01*
X18386D02*
X18480D01*
X18532D02*
X18540D01*
X18664D02*
X18676D01*
X18721D02*
X18765D01*
X18256Y17474D02*
X18270D01*
X18386D02*
X18489D01*
X18523D02*
X18538D01*
X18666D02*
X18687D01*
X18710D02*
X18765D01*
X18261Y17477D02*
X18270D01*
X18386D02*
X18537D01*
X18667D02*
X18765D01*
X18264Y17480D02*
X18270D01*
X18386D02*
X18440D01*
X18669D02*
X18765D01*
X18268Y17483D02*
X18270D01*
X18386D02*
X18434D01*
X18670D02*
X18765D01*
X18386Y17486D02*
X18431D01*
X18671D02*
X18765D01*
X18386Y17489D02*
X18428D01*
X18672D02*
X18765D01*
X18386Y17492D02*
X18425D01*
X18673D02*
X18765D01*
X18386Y17495D02*
X18422D01*
X18673D02*
X18765D01*
X18386Y17498D02*
X18419D01*
X18674D02*
X18765D01*
X18386Y17501D02*
X18416D01*
X18674D02*
X18765D01*
X18386Y17504D02*
X18413D01*
X18674D02*
X18765D01*
X18386Y17507D02*
X18410D01*
X18674D02*
X18765D01*
X18386Y17510D02*
X18407D01*
X18674D02*
X18765D01*
X18386Y17513D02*
X18404D01*
X18674D02*
X18765D01*
X18386Y17516D02*
X18401D01*
X18674D02*
X18765D01*
X18389Y17519D02*
X18398D01*
X18674D02*
X18765D01*
X18389Y17522D02*
X18395D01*
X18673D02*
X18765D01*
X18673Y17525D02*
X18765D01*
X18672Y17528D02*
X18765D01*
X18671Y17531D02*
X18765D01*
X18670Y17534D02*
X18765D01*
X18669Y17537D02*
X18765D01*
X18667Y17540D02*
X18690D01*
X18706D02*
X18765D01*
X18666Y17543D02*
X18677D01*
X18719D02*
X18765D01*
X18664Y17546D02*
X18670D01*
X18726D02*
X18765D01*
X18662Y17549D02*
X18664D01*
X18732D02*
X18765D01*
X18660Y17552D02*
X18660D01*
X18736D02*
X18765D01*
X18740Y17555D02*
X18765D01*
X18743Y17558D02*
X18765D01*
X18746Y17561D02*
X18765D01*
X18749Y17564D02*
X18765D01*
X18558Y17567D02*
X18559D01*
X18645D02*
X18645D01*
X18751D02*
X18765D01*
X18560Y17570D02*
X18564D01*
X18640D02*
X18643D01*
X18753D02*
X18765D01*
X18562Y17573D02*
X18569D01*
X18635D02*
X18642D01*
X18755D02*
X18765D01*
X18564Y17576D02*
X18576D01*
X18628D02*
X18640D01*
X18756D02*
X18765D01*
X18565Y17578D02*
X18585D01*
X18618D02*
X18639D01*
X18758D02*
X18765D01*
X18566Y17582D02*
X18638D01*
X18759D02*
X18765D01*
X18567Y17585D02*
X18637D01*
X18760D02*
X18765D01*
X18568Y17588D02*
X18636D01*
X18761D02*
X18765D01*
X18569Y17590D02*
X18635D01*
X18761D02*
X18765D01*
X18570Y17594D02*
X18635D01*
X18762D02*
X18765D01*
X18570Y17596D02*
X18634D01*
X18762D02*
X18765D01*
X18570Y17600D02*
X18634D01*
X18763D02*
X18765D01*
X18570Y17602D02*
X18634D01*
X18763D02*
X18765D01*
X18571Y17606D02*
X18634D01*
X18763D02*
X18765D01*
X18570Y17609D02*
X18634D01*
X18763D02*
X18765D01*
X18570Y17612D02*
X18634D01*
X18762D02*
X18765D01*
X18570Y17615D02*
X18635D01*
X18762D02*
X18765D01*
X18569Y17618D02*
X18635D01*
X18761D02*
X18765D01*
X18569Y17620D02*
X18636D01*
X18760D02*
X18765D01*
X18568Y17624D02*
X18637D01*
X18760D02*
X18765D01*
X18567Y17627D02*
X18638D01*
X18758D02*
X18765D01*
X18566Y17630D02*
X18592D01*
X18612D02*
X18639D01*
X18757D02*
X18765D01*
X18564Y17633D02*
X18579D01*
X18625D02*
X18641D01*
X18756D02*
X18765D01*
X18563Y17636D02*
X18572D01*
X18632D02*
X18642D01*
X18754D02*
X18765D01*
X18561Y17639D02*
X18566D01*
X18638D02*
X18644D01*
X18752D02*
X18765D01*
X18559Y17642D02*
X18561D01*
X18643D02*
X18646D01*
X18750D02*
X18765D01*
X18557Y17645D02*
X18557D01*
X18647D02*
X18648D01*
X18748D02*
X18765D01*
X18650Y17648D02*
X18651D01*
X18745D02*
X18765D01*
X18654Y17651D02*
X18654D01*
X18742D02*
X18765D01*
X18656Y17654D02*
X18658D01*
X18739D02*
X18765D01*
X18659Y17657D02*
X18662D01*
X18735D02*
X18765D01*
X18661Y17660D02*
X18666D01*
X18730D02*
X18765D01*
X18663Y17663D02*
X18672D01*
X18724D02*
X18765D01*
X18665Y17666D02*
X18681D01*
X18716D02*
X18765D01*
X18667Y17669D02*
X18765D01*
X18668Y17672D02*
X18765D01*
X18669Y17675D02*
X18765D01*
X18670Y17677D02*
X18765D01*
X18671Y17680D02*
X18765D01*
X18672Y17684D02*
X18765D01*
X18673Y17687D02*
X18765D01*
X18673Y17690D02*
X18765D01*
X18674Y17692D02*
X18765D01*
X18674Y17695D02*
X18765D01*
X18674Y17699D02*
X18765D01*
X18674Y17702D02*
X18765D01*
X18674Y17705D02*
X18765D01*
X18674Y17708D02*
X18765D01*
X18674Y17711D02*
X18765D01*
X18673Y17714D02*
X18765D01*
X18673Y17717D02*
X18765D01*
X18672Y17720D02*
X18765D01*
X18671Y17723D02*
X18765D01*
X18670Y17726D02*
X18765D01*
X18669Y17729D02*
X18765D01*
X18668Y17732D02*
X18765D01*
X18666Y17735D02*
X18682D01*
X18714D02*
X18765D01*
X18665Y17738D02*
X18673D01*
X18723D02*
X18765D01*
X18663Y17741D02*
X18667D01*
X18729D02*
X18765D01*
X18661Y17744D02*
X18662D01*
X18734D02*
X18765D01*
X18738Y17747D02*
X18765D01*
X18742Y17750D02*
X18765D01*
X18745Y17753D02*
X18765D01*
X18748Y17756D02*
X18765D01*
X18557Y17759D02*
X18557D01*
X18750D02*
X18765D01*
X18559Y17762D02*
X18561D01*
X18642D02*
X18644D01*
X18752D02*
X18765D01*
X18561Y17765D02*
X18566D01*
X18638D02*
X18642D01*
X18754D02*
X18765D01*
X18563Y17767D02*
X18572D01*
X18632D02*
X18641D01*
X18756D02*
X18765D01*
X18564Y17770D02*
X18580D01*
X18624D02*
X18639D01*
X18757D02*
X18765D01*
X18566Y17774D02*
X18595D01*
X18609D02*
X18638D01*
X18758D02*
X18765D01*
X18567Y17777D02*
X18637D01*
X18759D02*
X18765D01*
X18568Y17780D02*
X18636D01*
X18760D02*
X18765D01*
X18569Y17783D02*
X18635D01*
X18761D02*
X18765D01*
X18569Y17786D02*
X18635D01*
X18762D02*
X18765D01*
X18570Y17789D02*
X18634D01*
X18762D02*
X18765D01*
X18570Y17792D02*
X18634D01*
X18762D02*
X18765D01*
X18570Y17795D02*
X18634D01*
X18763D02*
X18765D01*
X18571Y17798D02*
X18634D01*
X18763D02*
X18765D01*
X18570Y17801D02*
X18634D01*
X18763D02*
X18765D01*
X18570Y17804D02*
X18634D01*
X18762D02*
X18765D01*
X18570Y17807D02*
X18634D01*
X18762D02*
X18765D01*
X18570Y17810D02*
X18635D01*
X18761D02*
X18765D01*
X18569Y17813D02*
X18636D01*
X18761D02*
X18765D01*
X18568Y17816D02*
X18636D01*
X18760D02*
X18765D01*
X18567Y17819D02*
X18637D01*
X18759D02*
X18765D01*
X18566Y17822D02*
X18639D01*
X18758D02*
X18765D01*
X18565Y17825D02*
X18640D01*
X18757D02*
X18765D01*
X18563Y17828D02*
X18641D01*
X18755D02*
X18765D01*
X18562Y17831D02*
X18643D01*
X18753D02*
X18765D01*
X18560Y17834D02*
X18645D01*
X18751D02*
X18765D01*
X18558Y17837D02*
X18647D01*
X18749D02*
X18765D01*
X18556Y17840D02*
X18650D01*
X18747D02*
X18765D01*
X18553Y17843D02*
X18653D01*
X18744D02*
X18765D01*
X18550Y17846D02*
X18656D01*
X18741D02*
X18765D01*
X18546Y17849D02*
X18659D01*
X18737D02*
X18765D01*
X18542Y17852D02*
X18664D01*
X18733D02*
X18765D01*
X18474Y17855D02*
X18475D01*
X18537D02*
X18669D01*
X18727D02*
X18765D01*
X18477Y17858D02*
X18481D01*
X18531D02*
X18676D01*
X18720D02*
X18765D01*
X18480Y17861D02*
X18489D01*
X18523D02*
X18687D01*
X18709D02*
X18765D01*
X18483Y17864D02*
X18765D01*
X18486Y17867D02*
X18765D01*
X18489Y17870D02*
X18765D01*
X18492Y17873D02*
X18765D01*
X18495Y17876D02*
X18765D01*
X18498Y17879D02*
X18765D01*
X18501Y17882D02*
X18765D01*
X18504Y17885D02*
X18765D01*
X18507Y17888D02*
X18765D01*
X18509Y17891D02*
X18765D01*
X18511Y17894D02*
X18765D01*
X18515Y17897D02*
X18765D01*
X18518Y17900D02*
X18765D01*
X18521Y17903D02*
X18765D01*
X18523Y17906D02*
X18765D01*
X18525Y17909D02*
X18765D01*
X18526Y17912D02*
X18765D01*
X18527Y17915D02*
X18765D01*
X18528Y17918D02*
X18765D01*
X18529Y17921D02*
X18765D01*
X18529Y17924D02*
X18765D01*
X18530Y17927D02*
X18765D01*
X18530Y17930D02*
X18765D01*
X18529Y17933D02*
X18765D01*
X18529Y17936D02*
X18765D01*
X18528Y17939D02*
X18765D01*
X18527Y17942D02*
X18765D01*
X18453Y17945D02*
X18453D01*
X18526D02*
X18765D01*
X18453Y17948D02*
X18455D01*
X18524D02*
X18765D01*
X18453Y17951D02*
X18457D01*
X18522D02*
X18765D01*
X18453Y17953D02*
X18459D01*
X18520D02*
X18765D01*
X18453Y17957D02*
X18462D01*
X18517D02*
X18765D01*
X18453Y17960D02*
X18466D01*
X18514D02*
X18765D01*
X18453Y17963D02*
X18470D01*
X18509D02*
X18765D01*
X18453Y17965D02*
X18477D01*
X18502D02*
X18765D01*
X18453Y17969D02*
X18765D01*
X18453Y17971D02*
X18765D01*
X18453Y17975D02*
X18765D01*
X18453Y17977D02*
X18765D01*
X18453Y17981D02*
X18765D01*
X18453Y17984D02*
X18765D01*
X18453Y17987D02*
X18765D01*
X18453Y17990D02*
X18765D01*
X18453Y17993D02*
X18765D01*
X18453Y17995D02*
X18765D01*
X18453Y17999D02*
X18765D01*
X18453Y18002D02*
X18765D01*
X18453Y18005D02*
X18765D01*
X18453Y18008D02*
X18765D01*
X18453Y18011D02*
X18765D01*
X18453Y18014D02*
X18765D01*
X18453Y18017D02*
X18765D01*
X18453Y18020D02*
X18765D01*
X18453Y18023D02*
X18765D01*
X18453Y18026D02*
X18765D01*
X18453Y18029D02*
X18765D01*
X18453Y18032D02*
X18765D01*
X18453Y18035D02*
X18765D01*
X18453Y18038D02*
X18765D01*
X18453Y18041D02*
X18765D01*
X18453Y18044D02*
X18765D01*
X18453Y18047D02*
X18765D01*
X18453Y18050D02*
X18765D01*
X18453Y18052D02*
X18765D01*
X18453Y18055D02*
X18765D01*
X18453Y18059D02*
X18765D01*
X18453Y18062D02*
X18765D01*
X18453Y18065D02*
X18765D01*
X18453Y18067D02*
X18765D01*
X18453Y18070D02*
X18765D01*
X18453Y18074D02*
X18765D01*
X18453Y18077D02*
X18765D01*
X18453Y18080D02*
X18765D01*
X18453Y18083D02*
X18765D01*
X18453Y18086D02*
X18765D01*
X18453Y18089D02*
X18765D01*
X18453Y18092D02*
X18765D01*
X18453Y18095D02*
X18765D01*
X18453Y18098D02*
X18765D01*
X18453Y18101D02*
X18765D01*
X18453Y18104D02*
X18765D01*
X18453Y18107D02*
X18765D01*
X18453Y18110D02*
X18765D01*
X18453Y18113D02*
X18765D01*
X18453Y18116D02*
X18765D01*
X18453Y18119D02*
X18765D01*
X18453Y18122D02*
X18765D01*
X18453Y18125D02*
X18765D01*
X18453Y18128D02*
X18765D01*
X18453Y18131D02*
X18765D01*
X18453Y18134D02*
X18765D01*
X18453Y18137D02*
X18765D01*
X18453Y18140D02*
X18765D01*
X18453Y18142D02*
X18765D01*
X18453Y18145D02*
X18765D01*
X18453Y18149D02*
X18765D01*
X18453Y18152D02*
X18765D01*
X18453Y18155D02*
X18522D01*
X18547D02*
X18765D01*
X18453Y18158D02*
X18515D01*
X18554D02*
X18765D01*
X18453Y18161D02*
X18511D01*
X18559D02*
X18765D01*
X18453Y18164D02*
X18507D01*
X18562D02*
X18765D01*
X18453Y18167D02*
X18504D01*
X18565D02*
X18765D01*
X18453Y18170D02*
X18502D01*
X18567D02*
X18765D01*
X18453Y18173D02*
X18500D01*
X18569D02*
X18765D01*
X18453Y18176D02*
X18498D01*
X18571D02*
X18765D01*
X18453Y18179D02*
X18497D01*
X18572D02*
X18765D01*
X18453Y18182D02*
X18496D01*
X18573D02*
X18765D01*
X18453Y18185D02*
X18495D01*
X18574D02*
X18765D01*
X18453Y18188D02*
X18495D01*
X18574D02*
X18765D01*
X18453Y18191D02*
X18495D01*
X18575D02*
X18765D01*
X18453Y18194D02*
X18495D01*
X18575D02*
X18765D01*
X18453Y18197D02*
X18495D01*
X18574D02*
X18765D01*
X18453Y18200D02*
X18495D01*
X18574D02*
X18765D01*
X18453Y18203D02*
X18496D01*
X18573D02*
X18765D01*
X18453Y18206D02*
X18497D01*
X18572D02*
X18765D01*
X18453Y18209D02*
X18498D01*
X18571D02*
X18765D01*
X18453Y18212D02*
X18499D01*
X18570D02*
X18765D01*
X18453Y18215D02*
X18501D01*
X18568D02*
X18765D01*
X18453Y18218D02*
X18503D01*
X18566D02*
X18765D01*
X18453Y18221D02*
X18506D01*
X18563D02*
X18593D01*
X18612D02*
X18765D01*
X18453Y18224D02*
X18509D01*
X18560D02*
X18581D01*
X18624D02*
X18765D01*
X18453Y18227D02*
X18512D01*
X18558D02*
X18573D01*
X18632D02*
X18765D01*
X18453Y18230D02*
X18512D01*
X18558D02*
X18568D01*
X18637D02*
X18765D01*
X18453Y18233D02*
X18512D01*
X18558D02*
X18563D01*
X18642D02*
X18765D01*
X18453Y18236D02*
X18512D01*
X18558D02*
X18560D01*
X18646D02*
X18765D01*
X18453Y18239D02*
X18512D01*
X18649D02*
X18765D01*
X18453Y18242D02*
X18512D01*
X18652D02*
X18765D01*
X18453Y18245D02*
X18512D01*
X18655D02*
X18765D01*
X18453Y18248D02*
X18512D01*
X18657D02*
X18765D01*
X18453Y18251D02*
X18512D01*
X18659D02*
X18765D01*
X18453Y18254D02*
X18512D01*
X18661D02*
X18765D01*
X18453Y18257D02*
X18512D01*
X18662D02*
X18765D01*
X18453Y18260D02*
X18512D01*
X18664D02*
X18765D01*
X18453Y18263D02*
X18512D01*
X18665D02*
X18765D01*
X18453Y18266D02*
X18512D01*
X18666D02*
X18765D01*
X18453Y18269D02*
X18512D01*
X18667D02*
X18765D01*
X18453Y18272D02*
X18512D01*
X18668D02*
X18765D01*
X18453Y18275D02*
X18512D01*
X18668D02*
X18765D01*
X18453Y18278D02*
X18512D01*
X18669D02*
X18765D01*
X18453Y18281D02*
X18512D01*
X18669D02*
X18765D01*
X18453Y18284D02*
X18512D01*
X18670D02*
X18765D01*
X18453Y18287D02*
X18512D01*
X18670D02*
X18765D01*
X18453Y18290D02*
X18512D01*
X18670D02*
X18765D01*
X18453Y18293D02*
X18512D01*
X18669D02*
X18765D01*
X18453Y18296D02*
X18512D01*
X18669D02*
X18765D01*
X18453Y18299D02*
X18512D01*
X18669D02*
X18765D01*
X18453Y18302D02*
X18512D01*
X18668D02*
X18765D01*
X18453Y18305D02*
X18512D01*
X18667D02*
X18765D01*
X18453Y18308D02*
X18512D01*
X18666D02*
X18765D01*
X18453Y18311D02*
X18512D01*
X18665D02*
X18765D01*
X18453Y18314D02*
X18512D01*
X18664D02*
X18765D01*
X18453Y18317D02*
X18512D01*
X18663D02*
X18765D01*
X18453Y18320D02*
X18512D01*
X18661D02*
X18765D01*
X18453Y18323D02*
X18512D01*
X18659D02*
X18765D01*
X18453Y18326D02*
X18512D01*
X18657D02*
X18765D01*
X18453Y18328D02*
X18512D01*
X18655D02*
X18765D01*
X18453Y18332D02*
X18512D01*
X18653D02*
X18765D01*
X18453Y18335D02*
X18512D01*
X18650D02*
X18765D01*
X18453Y18338D02*
X18512D01*
X18558D02*
X18559D01*
X18646D02*
X18765D01*
X18453Y18340D02*
X18512D01*
X18558D02*
X18562D01*
X18643D02*
X18765D01*
X18453Y18344D02*
X18512D01*
X18558D02*
X18567D01*
X18638D02*
X18765D01*
X18453Y18346D02*
X18512D01*
X18558D02*
X18572D01*
X18633D02*
X18765D01*
X18453Y18350D02*
X18512D01*
X18558D02*
X18579D01*
X18626D02*
X18765D01*
X18453Y18352D02*
X18512D01*
X18558D02*
X18589D01*
X18616D02*
X18765D01*
X18453Y18356D02*
X18512D01*
X18558D02*
X18765D01*
X18453Y18359D02*
X18512D01*
X18558D02*
X18765D01*
X18453Y18362D02*
X18512D01*
X18558D02*
X18765D01*
X18453Y18365D02*
X18512D01*
X18558D02*
X18765D01*
X18453Y18368D02*
X18512D01*
X18558D02*
X18765D01*
X18453Y18370D02*
X18512D01*
X18558D02*
X18765D01*
X18453Y18374D02*
X18512D01*
X18558D02*
X18765D01*
X18453Y18377D02*
X18512D01*
X18558D02*
X18765D01*
X18453Y18380D02*
X18512D01*
X18558D02*
X18765D01*
X18453Y18383D02*
X18512D01*
X18558D02*
X18765D01*
X18453Y18386D02*
X18512D01*
X18558D02*
X18765D01*
X18453Y18389D02*
X18512D01*
X18558D02*
X18765D01*
X18453Y18392D02*
X18512D01*
X18558D02*
X18765D01*
X18453Y18395D02*
X18512D01*
X18558D02*
X18765D01*
X18453Y18398D02*
X18512D01*
X18558D02*
X18765D01*
X18453Y18401D02*
X18512D01*
X18558D02*
X18765D01*
X18453Y18404D02*
X18512D01*
X18558D02*
X18765D01*
X18453Y18407D02*
X18512D01*
X18558D02*
X18765D01*
X18453Y18410D02*
X18512D01*
X18558D02*
X18765D01*
X18453Y18413D02*
X18512D01*
X18558D02*
X18765D01*
X18453Y18416D02*
X18512D01*
X18558D02*
X18765D01*
X18453Y18419D02*
X18512D01*
X18558D02*
X18765D01*
X18453Y18422D02*
X18512D01*
X18558D02*
X18765D01*
X18453Y18425D02*
X18512D01*
X18558D02*
X18765D01*
X18453Y18427D02*
X18512D01*
X18558D02*
X18765D01*
X18453Y18430D02*
X18512D01*
X18558D02*
X18765D01*
X18453Y18434D02*
X18512D01*
X18558D02*
X18765D01*
X18453Y18437D02*
X18512D01*
X18558D02*
X18765D01*
X18453Y18440D02*
X18512D01*
X18558D02*
X18765D01*
X18453Y18442D02*
X18512D01*
X18558D02*
X18765D01*
X18453Y18445D02*
X18512D01*
X18558D02*
X18765D01*
X18453Y18449D02*
X18512D01*
X18558D02*
X18765D01*
X18453Y18452D02*
X18512D01*
X18558D02*
X18765D01*
X18453Y18455D02*
X18512D01*
X18558D02*
X18765D01*
X18453Y18458D02*
X18512D01*
X18558D02*
X18765D01*
X18453Y18461D02*
X18512D01*
X18558D02*
X18765D01*
X18453Y18464D02*
X18512D01*
X18558D02*
X18765D01*
X18453Y18467D02*
X18512D01*
X18558D02*
X18765D01*
X18453Y18470D02*
X18512D01*
X18558D02*
X18765D01*
X18453Y18473D02*
X18512D01*
X18558D02*
X18765D01*
X18453Y18476D02*
X18512D01*
X18558D02*
X18765D01*
X18453Y18479D02*
X18512D01*
X18558D02*
X18765D01*
X18453Y18482D02*
X18512D01*
X18558D02*
X18765D01*
X18453Y18485D02*
X18512D01*
X18558D02*
X18765D01*
X18453Y18488D02*
X18512D01*
X18558D02*
X18765D01*
X18453Y18491D02*
X18512D01*
X18558D02*
X18765D01*
X18453Y18494D02*
X18512D01*
X18558D02*
X18765D01*
X18453Y18497D02*
X18512D01*
X18558D02*
X18765D01*
X18453Y18500D02*
X18512D01*
X18558D02*
X18765D01*
X18453Y18503D02*
X18512D01*
X18558D02*
X18765D01*
X18453Y18506D02*
X18512D01*
X18558D02*
X18765D01*
X18453Y18509D02*
X18512D01*
X18558D02*
X18765D01*
X18453Y18512D02*
X18512D01*
X18558D02*
X18765D01*
X18453Y18515D02*
X18512D01*
X18558D02*
X18765D01*
X18453Y18517D02*
X18512D01*
X18558D02*
X18765D01*
X18453Y18520D02*
X18512D01*
X18558D02*
X18765D01*
X18453Y18524D02*
X18512D01*
X18558D02*
X18765D01*
X18453Y18527D02*
X18512D01*
X18558D02*
X18765D01*
X18453Y18530D02*
X18512D01*
X18558D02*
X18765D01*
X18453Y18533D02*
X18512D01*
X18558D02*
X18765D01*
X18453Y18536D02*
X18512D01*
X18558D02*
X18765D01*
X18453Y18539D02*
X18512D01*
X18558D02*
X18765D01*
X18453Y18542D02*
X18512D01*
X18558D02*
X18765D01*
X18453Y18545D02*
X18512D01*
X18558D02*
X18765D01*
X18453Y18548D02*
X18512D01*
X18558D02*
X18765D01*
X18453Y18551D02*
X18512D01*
X18558D02*
X18765D01*
X18453Y18554D02*
X18512D01*
X18558D02*
X18765D01*
X18453Y18557D02*
X18512D01*
X18558D02*
X18765D01*
X18453Y18560D02*
X18512D01*
X18558D02*
X18765D01*
X18453Y18563D02*
X18512D01*
X18558D02*
X18765D01*
X18453Y18566D02*
X18512D01*
X18559D02*
X18765D01*
X18453Y18569D02*
X18512D01*
X18561D02*
X18765D01*
X18453Y18572D02*
X18512D01*
X18562D02*
X18765D01*
X18453Y18575D02*
X18512D01*
X18562D02*
X18765D01*
X18453Y18578D02*
X18512D01*
X18563D02*
X18765D01*
X18453Y18581D02*
X18512D01*
X18563D02*
X18765D01*
X18453Y18584D02*
X18512D01*
X18563D02*
X18765D01*
X18453Y18587D02*
X18513D01*
X18563D02*
X18765D01*
X18453Y18590D02*
X18515D01*
X18563D02*
X18765D01*
X18453Y18593D02*
X18517D01*
X18563D02*
X18765D01*
X18453Y18596D02*
X18517D01*
X18563D02*
X18765D01*
X18453Y18599D02*
X18517D01*
X18563D02*
X18765D01*
X18453Y18602D02*
X18517D01*
X18563D02*
X18765D01*
X18453Y18605D02*
X18517D01*
X18563D02*
X18765D01*
X18453Y18608D02*
X18517D01*
X18563D02*
X18765D01*
X18453Y18611D02*
X18517D01*
X18563D02*
X18765D01*
X18453Y18614D02*
X18517D01*
X18563D02*
X18765D01*
X18453Y18617D02*
X18517D01*
X18563D02*
X18765D01*
X18453Y18620D02*
X18517D01*
X18563D02*
X18765D01*
X18453Y18623D02*
X18517D01*
X18563D02*
X18765D01*
X18453Y18626D02*
X18517D01*
X18563D02*
X18765D01*
X18453Y18629D02*
X18517D01*
X18563D02*
X18765D01*
X18453Y18632D02*
X18517D01*
X18563D02*
X18765D01*
X18453Y18635D02*
X18517D01*
X18563D02*
X18765D01*
X18453Y18638D02*
X18517D01*
X18563D02*
X18765D01*
X18453Y18641D02*
X18517D01*
X18563D02*
X18765D01*
X18453Y18644D02*
X18517D01*
X18563D02*
X18765D01*
X18453Y18647D02*
X18517D01*
X18563D02*
X18765D01*
X18453Y18650D02*
X18517D01*
X18563D02*
X18765D01*
X18453Y18653D02*
X18517D01*
X18563D02*
X18765D01*
X18453Y18656D02*
X18517D01*
X18563D02*
X18765D01*
X18453Y18659D02*
X18517D01*
X18563D02*
X18765D01*
X18453Y18662D02*
X18517D01*
X18563D02*
X18765D01*
X18453Y18665D02*
X18517D01*
X18563D02*
X18765D01*
X18453Y18668D02*
X18517D01*
X18563D02*
X18765D01*
X18453Y18671D02*
X18517D01*
X18563D02*
X18765D01*
X18453Y18674D02*
X18517D01*
X18563D02*
X18765D01*
X18453Y18677D02*
X18517D01*
X18563D02*
X18765D01*
X18453Y18680D02*
X18517D01*
X18563D02*
X18765D01*
X18453Y18683D02*
X18517D01*
X18563D02*
X18765D01*
X18453Y18686D02*
X18517D01*
X18563D02*
X18765D01*
X18453Y18689D02*
X18517D01*
X18563D02*
X18765D01*
X18453Y18692D02*
X18517D01*
X18563D02*
X18765D01*
X18453Y18695D02*
X18517D01*
X18563D02*
X18765D01*
X18453Y18698D02*
X18517D01*
X18563D02*
X18765D01*
X18453Y18701D02*
X18517D01*
X18563D02*
X18765D01*
X18453Y18703D02*
X18517D01*
X18563D02*
X18765D01*
X18453Y18707D02*
X18517D01*
X18563D02*
X18765D01*
X18453Y18710D02*
X18517D01*
X18563D02*
X18765D01*
X18453Y18713D02*
X18517D01*
X18563D02*
X18765D01*
X18453Y18715D02*
X18517D01*
X18563D02*
X18765D01*
X18453Y18719D02*
X18517D01*
X18563D02*
X18765D01*
X18453Y18721D02*
X18517D01*
X18563D02*
X18765D01*
X18453Y18725D02*
X18517D01*
X18563D02*
X18765D01*
X18453Y18727D02*
X18517D01*
X18563D02*
X18765D01*
X18455Y18731D02*
X18517D01*
X18563D02*
X18765D01*
X18458Y18734D02*
X18517D01*
X18563D02*
X18765D01*
X18461Y18737D02*
X18517D01*
X18563D02*
X18765D01*
X18482Y18740D02*
X18517D01*
X18563D02*
X18765D01*
X18489Y18743D02*
X18517D01*
X18563D02*
X18765D01*
X18494Y18745D02*
X18517D01*
X18563D02*
X18765D01*
X18497Y18749D02*
X18517D01*
X18563D02*
X18765D01*
X18500Y18752D02*
X18517D01*
X18563D02*
X18765D01*
X18502Y18755D02*
X18517D01*
X18563D02*
X18765D01*
X18504Y18758D02*
X18517D01*
X18563D02*
X18765D01*
X18506Y18761D02*
X18517D01*
X18563D02*
X18765D01*
X18507Y18764D02*
X18517D01*
X18563D02*
X18765D01*
X18508Y18767D02*
X18517D01*
X18563D02*
X18765D01*
X18509Y18770D02*
X18517D01*
X18563D02*
X18765D01*
X18509Y18773D02*
X18517D01*
X18563D02*
X18765D01*
X18510Y18776D02*
X18517D01*
X18563D02*
X18765D01*
X18510Y18779D02*
X18517D01*
X18563D02*
X18765D01*
X18509Y18782D02*
X18517D01*
X18563D02*
X18765D01*
X18509Y18785D02*
X18517D01*
X18563D02*
X18765D01*
X18508Y18788D02*
X18517D01*
X18563D02*
X18765D01*
X18507Y18791D02*
X18517D01*
X18563D02*
X18765D01*
X18506Y18794D02*
X18517D01*
X18563D02*
X18765D01*
X18505Y18797D02*
X18517D01*
X18563D02*
X18765D01*
X18503Y18800D02*
X18517D01*
X18563D02*
X18765D01*
X18501Y18802D02*
X18517D01*
X18563D02*
X18765D01*
X18498Y18805D02*
X18517D01*
X18563D02*
X18765D01*
X18495Y18809D02*
X18517D01*
X18563D02*
X18765D01*
X18491Y18812D02*
X18517D01*
X18563D02*
X18765D01*
X18485Y18815D02*
X18517D01*
X18563D02*
X18765D01*
X18482Y18817D02*
X18517D01*
X18563D02*
X18765D01*
X18485Y18820D02*
X18517D01*
X18563D02*
X18765D01*
X18503Y18824D02*
X18517D01*
X18563D02*
X18765D01*
X18512Y18827D02*
X18517D01*
X18563D02*
X18765D01*
X18563Y18830D02*
X18765D01*
X18563Y18833D02*
X18765D01*
X18563Y18836D02*
X18765D01*
X18563Y18839D02*
X18765D01*
X18563Y18842D02*
X18765D01*
X18563Y18845D02*
X18765D01*
X18563Y18848D02*
X18765D01*
X18563Y18851D02*
X18765D01*
X18563Y18854D02*
X18765D01*
X18563Y18857D02*
X18765D01*
X18563Y18860D02*
X18765D01*
X18563Y18863D02*
X18765D01*
X18563Y18866D02*
X18765D01*
X18563Y18869D02*
X18765D01*
X18563Y18872D02*
X18765D01*
X18563Y18875D02*
X18765D01*
X18563Y18878D02*
X18765D01*
X18563Y18881D02*
X18765D01*
X18563Y18884D02*
X18765D01*
X18563Y18887D02*
X18765D01*
X18563Y18890D02*
X18765D01*
X18705Y17248D02*
Y17223D01*
X18690Y17208*
X18505*
X18490Y17223*
Y17258*
X18480Y17267*
X18470*
X18465Y17263*
Y17177*
X18485Y17158*
X18505*
X18515Y17148*
Y17098*
X18555Y17058*
X18605*
X18620Y17073*
Y17168*
X18630Y17177*
X18720*
X18735Y17192*
Y17243*
X18705Y17248*
X18554Y17059D02*
X18606D01*
X18551Y17062D02*
X18609D01*
X18548Y17065D02*
X18612D01*
X18545Y17067D02*
X18615D01*
X18542Y17070D02*
X18618D01*
X18539Y17074D02*
X18620D01*
X18536Y17077D02*
X18620D01*
X18533Y17080D02*
X18620D01*
X18530Y17083D02*
X18620D01*
X18527Y17086D02*
X18620D01*
X18524Y17089D02*
X18620D01*
X18521Y17092D02*
X18620D01*
X18518Y17095D02*
X18620D01*
X18515Y17098D02*
X18620D01*
X18515Y17101D02*
X18620D01*
X18515Y17104D02*
X18620D01*
X18515Y17107D02*
X18620D01*
X18515Y17110D02*
X18620D01*
X18515Y17113D02*
X18620D01*
X18515Y17116D02*
X18620D01*
X18515Y17119D02*
X18620D01*
X18515Y17122D02*
X18620D01*
X18515Y17125D02*
X18620D01*
X18515Y17128D02*
X18620D01*
X18515Y17131D02*
X18620D01*
X18515Y17134D02*
X18620D01*
X18515Y17137D02*
X18620D01*
X18515Y17140D02*
X18620D01*
X18515Y17142D02*
X18620D01*
X18515Y17145D02*
X18620D01*
X18514Y17149D02*
X18620D01*
X18511Y17152D02*
X18620D01*
X18508Y17155D02*
X18620D01*
X18485Y17158D02*
X18620D01*
X18482Y17161D02*
X18620D01*
X18479Y17164D02*
X18620D01*
X18476Y17167D02*
X18620D01*
X18473Y17170D02*
X18622D01*
X18470Y17173D02*
X18625D01*
X18467Y17176D02*
X18628D01*
X18465Y17179D02*
X18721D01*
X18465Y17182D02*
X18724D01*
X18465Y17185D02*
X18727D01*
X18465Y17188D02*
X18730D01*
X18465Y17191D02*
X18733D01*
X18465Y17194D02*
X18735D01*
X18465Y17197D02*
X18735D01*
X18465Y17200D02*
X18735D01*
X18465Y17203D02*
X18735D01*
X18465Y17206D02*
X18735D01*
X18465Y17209D02*
X18504D01*
X18691D02*
X18735D01*
X18465Y17212D02*
X18501D01*
X18694D02*
X18735D01*
X18465Y17215D02*
X18498D01*
X18697D02*
X18735D01*
X18465Y17218D02*
X18495D01*
X18700D02*
X18735D01*
X18465Y17221D02*
X18492D01*
X18703D02*
X18735D01*
X18465Y17224D02*
X18490D01*
X18705D02*
X18735D01*
X18465Y17227D02*
X18490D01*
X18705D02*
X18735D01*
X18465Y17230D02*
X18490D01*
X18705D02*
X18735D01*
X18465Y17233D02*
X18490D01*
X18705D02*
X18735D01*
X18465Y17236D02*
X18490D01*
X18705D02*
X18735D01*
X18465Y17239D02*
X18490D01*
X18705D02*
X18735D01*
X18465Y17242D02*
X18490D01*
X18705D02*
X18735D01*
X18465Y17245D02*
X18490D01*
X18705D02*
X18723D01*
X18465Y17248D02*
X18490D01*
X18465Y17251D02*
X18490D01*
X18465Y17254D02*
X18490D01*
X18465Y17257D02*
X18490D01*
X18465Y17260D02*
X18488D01*
X18465Y17263D02*
X18485D01*
X18468Y17266D02*
X18482D01*
D02*
D11*
X17027Y17208D02*
Y17008D01*
X17227*
X17027Y17208D02*
Y17008D01*
X17227*
X17075Y18544D02*
Y18568D01*
X17169Y17879D02*
X17145D01*
X17188Y17833D02*
X17164D01*
X17205Y17816D02*
Y17792D01*
X17221Y17833D02*
X17245D01*
X17227Y19008D02*
X17027D01*
Y18808*
X17227Y19008D02*
X17027D01*
Y18808*
X17243Y17879D02*
X17267D01*
X17273Y17833D02*
X17249D01*
X17290Y17816D02*
Y17792D01*
Y17849D02*
Y17873D01*
X18151Y17214D02*
Y17190D01*
Y17296D02*
Y17320D01*
X18164Y17255D02*
X18188D01*
X18291Y17297D02*
X18267D01*
X18291Y17348D02*
X18267D01*
X18291Y17400D02*
X18267D01*
X18291Y17451D02*
X18267D01*
X18328Y17285D02*
Y17261D01*
Y17616D02*
Y17640D01*
X18358Y17164D02*
X18341Y17181D01*
X18365Y17297D02*
X18389D01*
X18365Y17348D02*
X18389D01*
X18365Y17400D02*
X18389D01*
X18365Y17451D02*
X18389D01*
X18365Y17502D02*
X18389D01*
X18365Y17604D02*
X18389D01*
X18381Y17164D02*
X18398Y17181D01*
X18462Y17411D02*
X18438D01*
X18462Y17605D02*
X18438D01*
X18462Y17798D02*
X18438D01*
X18475Y17574D02*
X18458Y17557D01*
X18475Y17636D02*
X18458Y17653D01*
X18506Y17367D02*
Y17343D01*
Y17649D02*
Y17673D01*
Y17754D02*
Y17730D01*
Y17842D02*
Y17866D01*
X18546Y17282D02*
Y17306D01*
X18550Y17411D02*
X18574D01*
X18550Y17605D02*
X18574D01*
X18550Y17798D02*
X18574D01*
X18560Y17258D02*
X18584D01*
X18590Y17008D02*
X18790D01*
Y17208*
X18590Y17008D02*
X18790D01*
Y17208*
X18634Y17257D02*
X18610D01*
X18648Y17281D02*
Y17305D01*
X18654Y17410D02*
X18630D01*
X18654Y17603D02*
X18630D01*
X18654Y17797D02*
X18630D01*
X18698Y17366D02*
Y17342D01*
Y17454D02*
Y17478D01*
Y17559D02*
Y17535D01*
Y17647D02*
Y17671D01*
Y17753D02*
Y17729D01*
Y17841D02*
Y17865D01*
X18729Y17572D02*
X18746Y17555D01*
X18729Y17635D02*
X18746Y17652D01*
X18790Y18808D02*
Y19008D01*
X18590*
X18790Y18808D02*
Y19008D01*
X18590*
D02*
D15*
X17240Y18958D03*
X17240Y17058D03*
X17340D03*
X17340Y18958D03*
X17440D03*
X17440Y17058D03*
X17540Y18958D03*
X17640D03*
X17740D03*
X17840D03*
X17940D03*
X18040D03*
X18140D03*
X18240D03*
X18340D03*
X18440D03*
X18540D03*
X18640D03*
X18740D03*
D02*
D16*
X17102Y18933D03*
X18715Y17083D03*
D02*
D18*
X17791Y18844D03*
X18506Y17411D03*
Y17605D03*
D03*
Y17798D03*
X18698Y17410D03*
Y17603D03*
D03*
Y17797D03*
D02*
D19*
X18603Y18287D03*
D02*
D70*
X18478Y17258D03*
X18546D03*
X18648Y17257D03*
X18716D03*
D02*
D71*
X18372Y17093D03*
X18562D03*
D02*
D23*
X18602Y17508D03*
Y17701D03*
D02*
D26*
X17075Y18528D03*
X17105Y18138D03*
X17115Y18488D03*
X17205Y17833D03*
X17240Y17653D03*
X17260Y18773D03*
X17285Y18083D03*
Y18238D03*
X17290Y17833D03*
X17325Y17433D03*
X17370Y18483D03*
X17380Y18793D03*
X17385Y17392D03*
X17390Y17673D03*
X17485Y18793D03*
X17535Y17948D03*
X17560Y17613D03*
Y17673D03*
Y17758D03*
Y17823D03*
Y17883D03*
X17600Y18033D03*
X17640Y17977D03*
X17690Y18788D03*
Y18848D03*
X17725Y17977D03*
X17860Y18227D03*
X17890Y17613D03*
X17895Y17063D03*
X17915Y18733D03*
X17920Y18227D03*
X17957Y18822D03*
X17995Y18048D03*
Y18868D03*
X18075Y17883D03*
X18100Y17383D03*
X18110Y17833D03*
X18140Y18733D03*
X18155Y18052D03*
X18170Y17878D03*
X18185Y17363D03*
X18265Y17113D03*
Y18778D03*
X18280Y17203D03*
X18370Y17153D03*
X18470Y18778D03*
X18480Y17188D03*
X18490Y17927D03*
X18495Y18863D03*
X18535Y18192D03*
D02*
D27*
X17205Y17833D02*
X17080D01*
X17055Y17858*
Y18508*
X17075Y18528*
X17205Y17833D02*
Y17868D01*
X17200Y17873*
X17206Y17879*
Y17833*
X17290*
X17206Y18135D02*
X17107D01*
X17105Y18138*
X17206Y18288D02*
X17310D01*
Y18388*
X17340Y18418*
X17400*
X17430Y18448*
Y18798*
X17545Y18913*
Y18958*
X17540*
X17240Y17058D02*
Y17118D01*
X17260Y17138*
X17895*
Y17063*
X17240Y17653D02*
Y17608D01*
X17206Y17604*
X17260Y18773D02*
Y18517D01*
X17230Y18488*
X17115*
X17285Y18083D02*
X17215D01*
X17206Y18084*
X17285Y18238D02*
X17206Y18237D01*
X17325Y17433D02*
Y17723D01*
X17340Y17738*
Y18158*
X17315Y18183*
X17202*
X17206Y18186*
X17370Y18483D02*
Y18458D01*
X17355Y18442*
X17170*
X17130Y18403*
Y18213*
X17155Y18188*
X17190*
X17206Y18186*
X17385Y17392D02*
X17390Y17398D01*
Y17593*
X17350Y17633*
Y17708*
X17365Y17723*
Y18177*
X17305Y18237*
X17206*
X17390Y17673D02*
Y18208D01*
X17310Y18288*
X17202*
X17206Y18288*
X17434Y18338D02*
Y18297D01*
X17430Y18293*
Y17727*
X17485Y17673*
X17560*
X17440Y18958D02*
Y18852D01*
X17380Y18793*
X17485Y18338D02*
Y18792D01*
X17485Y18793*
X17537Y17255D02*
Y17369D01*
X17600Y17433*
Y18033*
X17560Y17613D02*
Y17448D01*
X17455Y17343*
X17325*
X17285Y17383*
Y17533*
X17265Y17552*
X17215*
X17210Y17548*
X17206Y17553*
X17560Y17883D02*
Y17892D01*
X17575Y17908*
Y17993*
X17560Y18008*
Y18098*
X17585Y18123*
X17715*
X17741Y18149*
Y18338*
X17588D02*
Y18221D01*
X17570Y18203*
X17475*
X17455Y18183*
Y17773*
X17470Y17758*
X17560*
X17588Y18338D02*
X17590D01*
Y18863*
X17641Y18914*
X17640Y18958*
X17588Y17255D02*
Y17366D01*
X17645Y17423*
Y17977*
X17640*
X17639Y17255D02*
Y17362D01*
X17680Y17403*
Y18073*
X17700Y18093*
X18130*
X18155Y18067*
Y18052*
X17639Y18338D02*
Y18187D01*
X17630Y18177*
X17515*
X17490Y18153*
Y17892*
X17560Y17823*
X17690Y18338D02*
Y18173D01*
X17665Y18148*
X17555*
X17535Y18128*
Y17948*
X17690Y18338D02*
Y18787D01*
X17690Y18788*
X17725Y17977D02*
X17720Y17983D01*
Y17392*
X17690Y17363*
Y17255*
X17740Y18958D02*
X17740D01*
Y18903*
X17725Y18888*
X17655*
X17640Y18873*
Y18338*
X17639*
X17741Y17255D02*
Y17364D01*
X17760Y17383*
Y17898*
X17780Y17918*
X17980*
X17995Y17933*
Y18048*
X17741Y18338D02*
Y18796D01*
X17690Y18848*
X17792Y17255D02*
Y17835D01*
X17835Y17878*
X18070*
X18075Y17883*
X17844Y17255D02*
Y17792D01*
X17885Y17833*
X18110*
X17920Y18227D02*
X18175D01*
X18200Y18253*
Y18638*
X18340Y18778*
Y18958*
X18340*
X17995Y18868D02*
X18120D01*
X18140Y18888*
X18140Y18958*
X17997Y17255D02*
Y17155D01*
X17980Y17138*
X17895*
Y17063*
X18048Y17255D02*
X18002D01*
X18000Y17258*
X17997Y17255*
X18075Y17883D02*
Y17958D01*
X18095Y17977*
X18185*
X18245Y18038*
Y18613*
X18495Y18863*
X18100Y17255D02*
Y17382D01*
X18100Y17383*
X18100Y17255D02*
X18057D01*
X18055Y17258*
X18048Y17255*
X18140Y18733D02*
X17915D01*
X18170Y17878D02*
X18300D01*
X18305Y17883*
X18328Y17879*
X18185Y17363D02*
Y17423D01*
X18170Y17438*
X17925*
X17890Y17473*
Y17613*
X18240Y18958D02*
Y18858D01*
X18204Y18822*
X17957*
X18265Y18778D02*
X17915D01*
X17885Y18808*
Y18878*
X17840Y18923*
Y18958*
X18280Y17203D02*
Y17128D01*
X18265Y17113*
X18328Y17297D02*
Y17104D01*
X18340Y17093*
X18372*
X18328Y17297D02*
Y17258D01*
X18150*
X18151Y17255*
X18328Y17348D02*
Y17394D01*
X18327Y17395*
X18328Y17400*
Y17348D02*
Y17299D01*
X18330Y17298*
X18328Y17297*
Y17400D02*
Y17398D01*
X18497*
X18510Y17410*
Y17413*
X18506Y17411*
X18328Y17400D02*
Y17444D01*
X18327Y17445*
X18328Y17451*
Y17494*
X18327Y17495*
X18328Y17502*
Y17604D02*
Y17602D01*
X18496*
X18500Y17606*
Y17608*
X18506Y17605*
X18328Y17879D02*
X18411D01*
X18430Y17898*
Y18738*
X18470Y18778*
X18370Y17153D02*
Y17102D01*
X18375Y17098*
X18372Y17093*
X18440Y18958D02*
Y18843D01*
X18225Y18628*
Y18233*
X18175Y18183*
X17885*
X17860Y18208*
Y18227*
X18478Y17258D02*
Y17189D01*
X18480Y17188*
X18478Y17258D02*
Y17189D01*
X18480Y17188*
X18560*
Y17098*
X18562Y17093*
X18490Y17927D02*
Y17903D01*
X18415Y17828*
X18300*
X18235Y17763*
X17925*
X17890Y17727*
Y17613*
X18506Y17411D02*
X18548D01*
X18550Y17413*
Y17263*
X18555Y17258*
X18546Y17258*
X18506Y17798D02*
X18694D01*
X18695Y17798*
X18702Y17795*
X18700Y17797*
X18698*
X18535Y18192D02*
Y18578D01*
X18540*
Y18958*
X18546Y17258D02*
X18540D01*
X18540Y17258*
X18648Y17257*
X18698Y17410D02*
Y17411D01*
X18700Y17413*
X18698Y17603*
Y17410D02*
X18502D01*
X18500Y17413*
X18506Y17411*
X18698Y17603D02*
X18501D01*
X18500Y17602*
X18506Y17605*
X18698Y17797D02*
X18704D01*
X18705Y17798*
Y17602*
X18700Y17598*
X18703Y17598*
X18698*
Y17603*
X18716Y17257D02*
Y17204D01*
X18700Y17188*
X18560*
Y17098*
X18562Y17093*
D02*
D28*
X18328Y17553D02*
X18407D01*
X18452Y17508*
X18602*
X18602Y17508*
D02*
D96*
X17206Y17297D03*
Y17348D03*
Y17400D03*
Y17451D03*
Y17502D03*
Y17553D03*
Y17604D03*
Y17879D03*
Y17930D03*
Y17981D03*
Y18032D03*
Y18084D03*
Y18135D03*
Y18186D03*
Y18237D03*
Y18288D03*
X18328Y17297D03*
Y17348D03*
Y17400D03*
Y17451D03*
Y17502D03*
Y17553D03*
Y17604D03*
Y17879D03*
Y17930D03*
Y17981D03*
Y18032D03*
Y18084D03*
Y18135D03*
Y18186D03*
Y18237D03*
Y18288D03*
D02*
D97*
X17383Y17255D03*
Y18338D03*
X17434Y17255D03*
X17434Y18338D03*
X17485Y17255D03*
Y18338D03*
X17537Y17255D03*
Y18338D03*
X17588D03*
X17588Y17255D03*
X17639D03*
Y18338D03*
X17690Y17255D03*
Y18338D03*
X17741Y17255D03*
Y18338D03*
X17792Y17255D03*
Y18338D03*
X17844Y17255D03*
X17844Y18338D03*
X17895Y17255D03*
Y18338D03*
X17946Y17255D03*
Y18338D03*
X17997Y17255D03*
Y18338D03*
X18048Y17255D03*
Y18338D03*
X18100Y17255D03*
X18100Y18338D03*
X18151Y17255D03*
Y18338D03*
X0Y0D02*
M02*
